<svg width="413" height="144" viewBox="0 0 413 144" fill="none" xmlns="http://www.w3.org/2000/svg">
<path d="M412.407 141.21H320.812V131.669H412.407V141.21Z" fill="black"/>
<path d="M294.521 141.21H282.308C273.53 141.21 270.095 136.439 269.523 129.188V125.753H268.569C264.18 136.058 254.638 143.5 237.655 143.5C217.046 143.5 204.452 132.814 204.452 114.685C204.452 97.3204 215.519 86.4434 244.906 86.4434H268.95V74.4214C268.95 58.0105 259.409 49.8051 243.38 49.8051C229.831 49.8051 220.481 55.339 215.138 66.0252L207.696 60.6821C212.848 49.4234 224.87 40.4547 243.952 40.4547C266.088 40.4547 279.827 52.6674 279.827 73.2765V131.669H294.521V141.21ZM239.373 134.34C255.974 134.34 268.95 125.944 268.95 112.777V94.6488H244.906C224.488 94.6488 215.901 101.328 215.901 112.014V116.975C215.901 128.234 225.252 134.34 239.373 134.34Z" fill="black"/>
<path d="M169.683 141.21V125.562H169.11C163.576 136.249 153.463 143.5 138.578 143.5C114.153 143.5 99.4595 124.99 99.4595 91.9774C99.4595 58.9647 114.153 40.4548 138.578 40.4548C153.463 40.4548 163.576 47.7061 169.11 58.3923H169.683V0H180.56V141.21H169.683ZM142.204 133.768C156.898 133.768 169.683 125.372 169.683 111.441V72.5133C169.683 58.5831 156.898 50.1868 142.204 50.1868C122.358 50.1868 111.1 63.7354 111.1 85.1077V98.847C111.1 120.219 122.358 133.768 142.204 133.768Z" fill="black"/>
<path d="M43.1263 143.5C15.8384 143.5 0 124.227 0 91.9773C0 59.5371 16.0293 40.4547 42.9355 40.4547C61.2546 40.4547 73.0858 49.6143 78.0472 62.5903L69.2693 66.9793C65.262 56.1023 56.1024 49.9959 42.9355 49.9959C22.8989 49.9959 11.6403 64.1169 11.6403 85.1076V98.847C11.6403 119.838 22.8989 133.959 43.1263 133.959C57.0565 133.959 66.4069 127.089 71.5592 115.83L79.5738 120.983C74.0399 133.768 62.0179 143.5 43.1263 143.5Z" fill="black"/>
</svg>
