<svg width="100" height="100" viewBox="0 0 100 100" fill="none" xmlns="http://www.w3.org/2000/svg">
<rect width="100" height="100" fill="#444444"/>
<path d="M19.1631 62.32C17.1365 62.32 15.4031 61.8133 13.9631 60.8C12.5231 59.76 11.5365 58.36 11.0031 56.6C10.6031 55.3733 10.4031 53.76 10.4031 51.76C10.4031 49.92 10.6031 48.3067 11.0031 46.92C11.5365 45.2133 12.5231 43.8533 13.9631 42.84C15.4298 41.8267 17.1631 41.32 19.1631 41.32C21.1631 41.32 22.9098 41.8267 24.4031 42.84C25.8965 43.8533 26.8698 45.1333 27.3231 46.68C27.4831 47.1067 27.5898 47.5467 27.6431 48C27.6431 48.2133 27.5231 48.3467 27.2831 48.4L24.2831 48.84H24.2031C24.0165 48.84 23.8831 48.72 23.8031 48.48L23.6831 47.84C23.4698 46.9333 22.9498 46.1733 22.1231 45.56C21.2965 44.9467 20.2965 44.64 19.1231 44.64C17.9765 44.64 17.0031 44.9467 16.2031 45.56C15.4031 46.1733 14.8831 46.9867 14.6431 48C14.4031 48.96 14.2831 50.2267 14.2831 51.8C14.2831 53.3467 14.4031 54.6 14.6431 55.56C14.9098 56.6267 15.4298 57.4667 16.2031 58.08C17.0031 58.6933 17.9765 59 19.1231 59C20.2965 59 21.2965 58.6933 22.1231 58.08C22.9765 57.4667 23.5098 56.6667 23.7231 55.68C23.7498 55.6533 23.7498 55.6267 23.7231 55.6C23.7231 55.5467 23.7365 55.5067 23.7631 55.48V55.32C23.8431 55.1067 23.9898 55.0267 24.2031 55.08L27.2031 55.56C27.4165 55.6133 27.5231 55.72 27.5231 55.88V56.04C27.5231 56.28 27.4565 56.5733 27.3231 56.92C26.8698 58.5467 25.8965 59.8533 24.4031 60.84C22.9098 61.8267 21.1631 62.32 19.1631 62.32Z" fill="white"/>
<path d="M44.5416 34.4C44.5416 34.1333 44.6749 34 44.9416 34H47.9816C48.2482 34 48.3816 34.1333 48.3816 34.4V61.6C48.3816 61.8667 48.2482 62 47.9816 62H44.9416C44.6749 62 44.5416 61.8667 44.5416 61.6V60.28C44.5416 60.2267 44.5149 60.1867 44.4616 60.16C44.4349 60.1333 44.3949 60.1467 44.3416 60.2C43.7549 60.8667 43.0616 61.3867 42.2616 61.76C41.4616 62.1333 40.5949 62.32 39.6616 62.32C37.7416 62.32 36.1416 61.8533 34.8616 60.92C33.6082 59.96 32.6882 58.6133 32.1016 56.88C31.5949 55.4667 31.3416 53.76 31.3416 51.76C31.3416 49.8933 31.5549 48.28 31.9816 46.92C32.5416 45.16 33.4616 43.7867 34.7416 42.8C36.0216 41.8133 37.6616 41.32 39.6616 41.32C40.5682 41.32 41.4216 41.5067 42.2216 41.88C43.0482 42.2267 43.7549 42.7333 44.3416 43.4C44.3949 43.4533 44.4349 43.4667 44.4616 43.44C44.5149 43.4133 44.5416 43.3733 44.5416 43.32V34.4ZM43.5416 56.84C44.1549 55.72 44.4616 54.04 44.4616 51.8C44.4616 49.56 44.1282 47.8533 43.4616 46.68C42.6882 45.32 41.5549 44.64 40.0616 44.64C38.4616 44.64 37.2749 45.28 36.5016 46.56C35.6482 47.8933 35.2216 49.6533 35.2216 51.84C35.2216 53.8933 35.5549 55.5467 36.2216 56.8C36.9949 58.2667 38.2616 59 40.0216 59C41.5682 59 42.7416 58.28 43.5416 56.84Z" fill="white"/>
<path d="M61.451 41.32C63.0776 41.32 64.4909 41.6133 65.6909 42.2C66.9176 42.76 67.8509 43.56 68.4909 44.6C69.1576 45.6133 69.4909 46.7733 69.4909 48.08V61.6C69.4909 61.8667 69.3576 62 69.091 62H66.0509C65.7843 62 65.651 61.8667 65.651 61.6V60.16C65.651 60.0267 65.5843 60 65.451 60.08C64.7576 60.8 63.9043 61.36 62.8909 61.76C61.9043 62.1333 60.7976 62.32 59.5709 62.32C57.5976 62.32 55.9576 61.8267 54.6509 60.84C53.3709 59.8267 52.7309 58.3067 52.7309 56.28C52.7309 54.2 53.4509 52.5733 54.8909 51.4C56.3576 50.2 58.3976 49.6 61.0109 49.6H65.491C65.5976 49.6 65.651 49.5467 65.651 49.44V48.36C65.651 47.1867 65.3043 46.28 64.611 45.64C63.9443 44.9733 62.9176 44.64 61.5309 44.64C60.4109 44.64 59.491 44.8667 58.771 45.32C58.0776 45.7467 57.6509 46.3333 57.4909 47.08C57.4109 47.3467 57.2509 47.4667 57.0109 47.44L53.771 47C53.5043 46.9467 53.3843 46.84 53.4109 46.68C53.6243 45.1067 54.4643 43.8267 55.931 42.84C57.3976 41.8267 59.2376 41.32 61.451 41.32ZM60.4109 59.08C61.8243 59.08 63.0509 58.7067 64.091 57.96C65.131 57.2133 65.651 56.2667 65.651 55.12V52.76C65.651 52.6533 65.5976 52.6 65.491 52.6H61.7309C60.1576 52.6 58.9043 52.9067 57.971 53.52C57.0376 54.1333 56.5709 54.9867 56.5709 56.08C56.5709 57.0667 56.9176 57.8133 57.611 58.32C58.331 58.8267 59.2643 59.08 60.4109 59.08Z" fill="white"/>
<path d="M73.275 62C73.0083 62 72.875 61.8667 72.875 61.6V59.4C72.875 59.1333 73.0083 59 73.275 59H90.395C90.6617 59 90.795 59.1333 90.795 59.4V61.6C90.795 61.8667 90.6617 62 90.395 62H73.275Z" fill="white"/>
</svg>
