<svg height="112" viewBox="0 0 2896 112" width="2896" xmlns="http://www.w3.org/2000/svg" xmlns:xlink="http://www.w3.org/1999/xlink"><mask id="a" fill="#fff"/><mask id="b" fill="#fff"/><mask id="c" fill="#fff"/><mask id="d" fill="#fff"/><mask id="e" fill="#fff"/><mask id="f" fill="#fff"/><mask id="g" fill="#fff"/><mask id="h" fill="#fff"/><mask id="i" fill="#fff"/><mask id="j" fill="#fff"/><mask id="k" fill="#fff"/><mask id="l" fill="#fff"/><mask id="m" fill="#fff"/><mask id="n" fill="#fff"/><mask id="o" fill="#fff"/><mask id="p" fill="#fff"/><mask id="q" fill="#fff"/><mask id="r" fill="#fff"/><mask id="s" fill="#fff"/><mask id="t" fill="#fff"/><mask id="u" fill="#fff"/><mask id="v" fill="#fff"/><mask id="w" fill="#fff"/><mask id="x" fill="#fff"/><mask id="y" fill="#fff"/><mask id="z" fill="#fff"/><mask id="A" fill="#fff"/><mask id="B" fill="#fff"/><mask id="C" fill="#fff"/><mask id="D" fill="#fff"/><mask id="E" fill="#fff"/><mask id="F" fill="#fff"/><mask id="G" fill="#fff"/><mask id="H" fill="#fff"/><mask id="I" fill="#fff"/><mask id="J" fill="#fff"/><mask id="K" fill="#fff"/><mask id="L" fill="#fff"/><mask id="M" fill="#fff"/><mask id="N" fill="#fff"/><mask id="O" fill="#fff"/><mask id="P" fill="#fff"/><mask id="Q" fill="#fff"/><mask id="R" fill="#fff"/><mask id="S" fill="#fff"/><mask id="T" fill="#fff"/><mask id="U" fill="#fff"/><mask id="V" fill="#fff"/><mask id="W" fill="#fff"/><mask id="X" fill="#fff"/><mask id="Y" fill="#fff"/><mask id="Z" fill="#fff"/><mask id="aa" fill="#fff"/><mask id="ab" fill="#fff"/><mask id="ac" fill="#fff"/><mask id="ad" fill="#fff"/><mask id="ae" fill="#fff"/><mask id="af" fill="#fff"/><mask id="ag" fill="#fff"/><mask id="ah" fill="#fff"/><mask id="ai" fill="#fff"/><mask id="aj" fill="#fff"/><mask id="ak" fill="#fff"/><mask id="al" fill="#fff"/><mask id="am" fill="#fff"/><mask id="an" fill="#fff"/><mask id="ao" fill="#fff"/><mask id="ap" fill="#fff"/><mask id="aq" fill="#fff"/><mask id="ar" fill="#fff"/><mask id="as" fill="#fff"/><mask id="at" fill="#fff"/><mask id="au" fill="#fff"/><mask id="av" fill="#fff"/><mask id="aw" fill="#fff"/><mask id="ax" fill="#fff"/><mask id="ay" fill="#fff"/><mask id="az" fill="#fff"/><g fill="none" fill-rule="evenodd"><g transform="translate(3)"><g fill-rule="nonzero"><path d="m5.798 4.011c-1.689 0-3.073 1.384-3.073 3.073v2.195h-2.687v3.952h2.688v6.769h3.952v-6.769h3.285v-3.952h-3.34v-.658c0-.371.146-.658.714-.658h2.626v-3.952z" fill="#fff"/><path d="m39.528 16.475h-5.229c-.972 0-1.763-.789-1.763-1.762v-2.745h6.99c.978 0 1.767-.789 1.767-1.763 0-.973-.789-1.762-1.767-1.762h-6.99v-2.671c0-.974-.789-1.763-1.766-1.763-.974 0-1.763.789-1.763 1.763v8.94c0 2.916 2.371 5.287 5.287 5.287h5.229c.978 0 1.767-.789 1.767-1.762.001-.972-.788-1.762-1.762-1.762z" fill="#fff"/><g fill="#fff"><g transform="translate(57 12)"><path d="m0 0v8h16v-8zm4.32 6.795h-.896v-4.954h-.924v-.841h2.746v.841h-.926zm3.183 0h-.794v-.473c-.146.174-.299.307-.457.396-.158.09-.312.136-.462.136-.188 0-.322-.062-.415-.189-.096-.128-.142-.318-.142-.573v-3.572h.795v3.277c0 .102.02.174.053.22.029.046.086.068.161.068.06 0 .133-.03.222-.091.089-.06.172-.137.246-.229v-3.245h.794zm3.06-.886c0 .304-.062.536-.188.697s-.309.242-.54.242c-.154 0-.293-.031-.416-.095-.121-.062-.234-.158-.338-.288v.329h-.806v-5.794h.808v1.865c.104-.13.22-.229.34-.297s.241-.102.363-.102c.252 0 .44.091.572.273.137.182.2.448.2.797zm2.937-1.151h-1.52v.806c0 .226.026.381.078.468.053.087.146.131.271.131.131 0 .224-.037.272-.111.052-.072.078-.235.078-.487v-.297h.82v.321c0 .438-.103.768-.299.989-.199.222-.497.333-.896.333-.354 0-.636-.117-.84-.353s-.304-.558-.304-.97v-1.918c0-.371.108-.674.337-.907.225-.233.515-.351.87-.351.359 0 .643.107.838.324.191.216.293.527.293.934z"/><path d="m9.412 3.145c-.06 0-.111.015-.167.043-.06.027-.109.07-.163.13v2.663c.062.07.127.12.188.15.062.031.125.047.192.047.097 0 .169-.031.214-.09.046-.061.068-.159.068-.295v-2.207c0-.145-.027-.254-.084-.329-.056-.074-.139-.112-.248-.112z"/><path d="m12.336 3.16c-.127 0-.219.039-.274.117-.055.076-.081.205-.081.384v.433h.701v-.433c0-.179-.027-.308-.082-.384-.056-.078-.144-.117-.264-.117z"/></g><g transform="translate(59 4)"><path d="m.5 0h1.099l.705 2.82h.07l.674-2.82h1.104l-1.267 4.129v2.928h-1.091v-2.797z"/><path d="m4.107 3.041c0-.402.128-.725.395-.963.257-.24.605-.358 1.047-.358.396 0 .729.126.98.378.26.252.389.576.389.973v2.689c0 .445-.127.795-.376 1.049-.252.253-.6.38-1.036.38-.424 0-.762-.131-1.02-.394-.254-.261-.38-.613-.38-1.055v-2.699zm.995 2.797c0 .143.033.254.104.332.065.078.167.117.295.117.132 0 .232-.041.312-.121s.116-.189.116-.328v-2.836c0-.113-.04-.205-.118-.275-.079-.07-.181-.105-.311-.105-.118 0-.214.035-.288.105-.073.07-.11.162-.11.275z"/><path d="m10.5 1.852v5.205h-.97v-.574c-.179.211-.362.373-.558.482-.192.111-.38.166-.56.166-.228 0-.396-.076-.511-.231-.11-.155-.17-.388-.17-.696v-4.352h.973v3.99c0 .123.019.213.061.268.039.055.105.084.195.084.072 0 .161-.037.271-.111s.207-.166.298-.279v-3.952z"/></g></g><g fill="#fff" transform="translate(87 3)"><path d="m5.624 4.541h-3.837l1.297 3.688-2.27 4.281h3.836l2.271-4.281z"/><path d="m15.99.969h-3.838l-5.11 9.633 3.899 6.356h3.836l-3.899-6.356z"/></g><path d="m220.5 15c-.67 0-1.275.267-1.729.696l-4.934-2.713c.099-.314.163-.639.163-.983s-.064-.669-.157-.982l4.935-2.713c.447.428 1.052.695 1.722.695 1.381 0 2.5-1.119 2.5-2.5s-1.119-2.5-2.5-2.5-2.5 1.119-2.5 2.5c0 .168.018.333.05.492l-4.929 2.71c-.641-.731-1.571-1.202-2.621-1.202-1.938 0-3.5 1.566-3.5 3.5s1.562 3.5 3.5 3.5c1.05 0 1.979-.471 2.621-1.202l4.929 2.71c-.032.159-.05.323-.05.492 0 1.381 1.119 2.5 2.5 2.5s2.5-1.119 2.5-2.5-1.119-2.5-2.5-2.5z" fill="#fff"/><g fill="#fff"><path d="m3.632 16v-10.319h-3.43v10.319zm-1.714-11.728c1.191 0 1.938-.792 1.938-1.783-.021-1.012-.744-1.783-1.918-1.783s-1.938.771-1.938 1.783c0 .991.744 1.783 1.896 1.783z" transform="translate(267 4)"/><path d="m.529 11h3.435v-5.762c0-.309.021-.617.109-.837.247-.616.812-1.254 1.761-1.254 1.242 0 1.732.946 1.732 2.333v5.52h3.434v-5.917c0-3.169-1.691-4.645-3.949-4.645-1.85 0-2.662 1.034-3.113 1.739h.022v-1.496h-3.433c.048.968.002 10.319.002 10.319z" transform="translate(272 9)"/></g><g fill="#fff" transform="translate(177 4)"><path d="m13.318 6.968.912 1.032h-4.23v2h-4v-2h-4.21l2.21-2.5h5.9c-.354-.436-.613-.941-.762-1.5h-5.138l-3.979 4h-.021v8h16v-6-2l-1.355-1.363c-.411.186-.858.293-1.327.331z"/><path d="m11.348 5.5c.317.21.676.363 1.062.44.192.039.388.06.59.06.305 0 .591-.059.867-.143 1.231-.375 2.133-1.506 2.133-2.857 0-1.654-1.35-3-3-3-1.654 0-3 1.346-3 3 0 .353.068.686.186 1 .218.617.625 1.144 1.162 1.5zm-.348-3h1.5v-1.5h1v1.5h1.5v1h-1.5v1.5h-1v-1.5h-1.5z"/></g><g fill="#fff" transform="translate(117 4)"><path d="m15.998 14.099v-8l-4.999 4z"/><path d="m8.001 0-7.999 6.099h15.998z"/><path d="m5 10.099-5-4v8z"/><path d="m9.999 10.898-2 1.601-2-1.601-5.999 4.8v.302h15.998v-.302z"/></g><path d="m245.422 4c-4.912 0-7.393 3.521-7.393 6.459 0 1.778.677 3.36 2.115 3.95.237.097.449.003.521-.259.048-.182.161-.639.211-.83.066-.259.043-.35-.147-.576-.416-.491-.682-1.127-.682-2.028 0-2.612 1.954-4.952 5.09-4.952 2.776 0 4.301 1.697 4.301 3.962 0 2.982-1.313 5.498-3.272 5.498-1.082 0-1.896-.894-1.631-1.992.31-1.31.907-2.723.907-3.669 0-.847-.45-1.552-1.395-1.552-1.105 0-1.994 1.146-1.994 2.676 0 .976.329 1.636.329 1.636s-1.13 4.795-1.329 5.634c-.396 1.673-.06 3.723-.029 3.929.021.123.179.152.244.06.104-.134 1.42-1.759 1.866-3.384.126-.46.729-2.842.729-2.842.359.688 1.408 1.288 2.523 1.288 3.323 0 5.579003-3.03 5.579003-7.085.002997-3.067-2.596003-5.923-6.543003-5.923z" fill="#fff"/><g fill="#fff" transform="translate(147 4)"><circle cx="2" cy="14" r="2"/><path d="m0 0v2.5c7.44 0 13.5 6.056 13.5 13.5h2.5c0-8.836-7.163-16-16-16z"/><path d="m0 5.875v2.5c4.204 0 7.625 3.42 7.625 7.625h2.5c0-5.592-4.534-10.125-10.125-10.125z"/></g><g fill="#fff" transform="translate(299 4)"><path d="m10 16-4-4-4 4v-16h8z"/><path d="m-.004 0h1v16h-1z"/><path d="m10.996 0h1v16h-1z"/></g><path d="m5.798 34.011c-1.689 0-3.073 1.384-3.073 3.073v2.195h-2.687v3.952h2.688v6.769h3.952v-6.77h3.285v-3.952h-3.34v-.658c0-.371.146-.658.714-.658h2.626v-3.952z" fill="#000" stroke="#fff"/><path d="m39.528 46.475h-5.229c-.972 0-1.763-.789-1.763-1.762v-2.745h6.99c.978 0 1.767-.789 1.767-1.763 0-.973-.789-1.762-1.767-1.762h-6.99v-2.671c0-.974-.789-1.763-1.766-1.763-.974 0-1.763.789-1.763 1.763v8.94c0 2.916 2.371 5.287 5.287 5.287h5.229c.978 0 1.767-.789 1.767-1.763.001-.97-.788-1.761-1.762-1.761z" fill="#000" stroke="#fff"/><g fill="#000"><g transform="translate(57 42)"><path d="m0 0v8h16v-8zm4.32 6.795h-.896v-4.954h-.924v-.841h2.746v.841h-.926zm3.183 0h-.794v-.473c-.146.174-.299.307-.457.396s-.312.137-.462.137c-.188 0-.322-.062-.415-.188-.096-.128-.142-.317-.142-.572v-3.575h.795v3.277c0 .102.02.174.053.221.029.045.086.067.161.067.06 0 .133-.03.222-.091s.172-.137.246-.229v-3.245h.794zm3.06-.886c0 .304-.062.536-.188.696-.125.162-.309.242-.54.242-.154 0-.293-.031-.416-.098-.121-.061-.234-.157-.338-.287v.329h-.806v-5.791h.808v1.865c.104-.131.22-.229.34-.297s.241-.103.363-.103c.252 0 .44.091.572.273.137.182.2.448.2.797zm2.937-1.151h-1.52v.807c0 .229.026.381.078.471.053.087.146.131.271.131.131 0 .224-.037.272-.109.052-.07.078-.234.078-.486v-.302h.82v.32c0 .438-.103.77-.299.989-.199.222-.497.333-.896.333-.354 0-.636-.117-.84-.354-.204-.238-.306-.56-.306-.972v-1.916c0-.371.108-.674.337-.906.225-.234.515-.352.87-.352.359 0 .643.107.838.324.191.216.293.528.293.934z"/><path d="m9.412 3.145c-.06 0-.111.017-.167.043-.06.027-.109.07-.163.131v2.661c.062.07.127.121.188.15.062.031.125.047.192.047.097 0 .169-.031.214-.09.046-.06.068-.157.068-.294v-2.207c0-.145-.027-.254-.084-.329-.056-.073-.139-.112-.248-.112z"/><path d="m12.336 3.16c-.127 0-.219.039-.274.117-.055.076-.081.205-.081.384v.433h.701v-.433c0-.179-.027-.308-.082-.384-.056-.078-.144-.117-.264-.117z"/></g><g transform="translate(59 34)"><path d="m.5 0h1.099l.705 2.82h.07l.674-2.82h1.104l-1.267 4.129v2.928h-1.091v-2.797z"/><path d="m4.107 3.041c0-.402.128-.725.395-.963.257-.24.605-.358 1.047-.358.396 0 .729.126.98.378.26.252.389.576.389.973v2.689c0 .445-.127.795-.376 1.049-.252.253-.6.38-1.036.38-.424 0-.762-.131-1.02-.394-.254-.261-.38-.613-.38-1.055v-2.699zm.995 2.797c0 .143.033.254.104.332.065.078.167.117.295.117.132 0 .232-.041.312-.121s.116-.189.116-.328v-2.836c0-.113-.04-.205-.118-.275-.079-.07-.181-.105-.311-.105-.118 0-.214.035-.288.105-.073.07-.11.162-.11.275z"/><path d="m10.5 1.852v5.205h-.97v-.574c-.179.211-.362.373-.558.482-.192.111-.38.166-.56.166-.228 0-.396-.076-.511-.231-.11-.155-.17-.388-.17-.696v-4.352h.973v3.99c0 .123.019.213.061.268.039.055.105.084.195.084.072 0 .161-.037.271-.111s.207-.166.298-.279v-3.951z"/></g></g><g fill="#000" transform="translate(87 33)"><path d="m5.624 4.541h-3.837l1.297 3.688-2.27 4.281h3.836l2.271-4.281z"/><path d="m15.99.969h-3.838l-5.11 9.633 3.899 6.356h3.836l-3.899-6.356z"/></g><path d="m220.5 45c-.67 0-1.275.268-1.729.695l-4.934-2.713c.099-.313.163-.638.163-.982s-.064-.669-.157-.982l4.935-2.713c.447.428 1.052.695 1.722.695 1.381 0 2.5-1.119 2.5-2.5s-1.119-2.5-2.5-2.5-2.5 1.119-2.5 2.5c0 .168.018.333.05.492l-4.929 2.71c-.645-.731-1.571-1.202-2.621-1.202-1.938 0-3.5 1.566-3.5 3.5s1.562 3.5 3.5 3.5c1.05 0 1.979-.471 2.621-1.202l4.929 2.71c-.032.159-.05.323-.05.492 0 1.381 1.119 2.5 2.5 2.5s2.5-1.119 2.5-2.5-1.119-2.5-2.5-2.5z" fill="#000"/><g fill="#000"><path d="m3.632 16v-10.318h-3.43v10.318zm-1.714-11.729c1.191 0 1.938-.791 1.938-1.783-.021-1.012-.744-1.782-1.918-1.782s-1.938.771-1.938 1.782c0 .992.744 1.783 1.896 1.783z" transform="translate(267 34)"/><path d="m.529 11h3.435v-5.762c0-.309.021-.617.109-.838.247-.616.812-1.254 1.761-1.254 1.242 0 1.732.945 1.732 2.333v5.521h3.434v-5.917c0-3.169-1.691-4.645-3.949-4.645-1.85 0-2.662 1.034-3.113 1.739h.022v-1.496h-3.433c.048.967.002 10.319.002 10.319z" transform="translate(272 39)"/></g><g fill="#000" transform="translate(177 34)"><path d="m13.318 6.968.912 1.032h-4.23v2h-4v-2h-4.21l2.21-2.5h5.9c-.354-.436-.613-.941-.762-1.5h-5.138l-3.979 4h-.021v8h16v-6-2l-1.355-1.363c-.411.186-.858.293-1.327.331z"/><path d="m11.348 5.5c.317.211.676.363 1.062.44.19.039.388.06.59.06.305 0 .591-.059.867-.143 1.231-.375 2.133-1.506 2.133-2.857 0-1.654-1.35-3-3-3-1.654 0-3 1.346-3 3 0 .353.068.686.186 1 .218.617.625 1.145 1.162 1.5zm-.348-3h1.5v-1.5h1v1.5h1.5v1h-1.5v1.5h-1v-1.5h-1.5z"/></g><g fill="#000" transform="translate(117 34)"><path d="m15.998 14.1v-8l-4.999 4z"/><path d="m8.001 0-7.999 6.099h15.998z"/><path d="m5 10.1-5-4.001v8z"/><path d="m9.999 10.898-2 1.601-2-1.601-5.999 4.799v.303h15.998v-.303z"/></g><path d="m245.422 34c-4.912 0-7.393 3.521-7.393 6.459 0 1.778.677 3.359 2.115 3.95.237.097.449.003.521-.259.048-.183.161-.64.211-.83.066-.26.043-.351-.147-.576-.416-.491-.682-1.127-.682-2.028 0-2.612 1.954-4.952 5.09-4.952 2.776 0 4.301 1.697 4.301 3.962 0 2.982-1.313 5.499-3.272 5.499-1.082 0-1.896-.895-1.631-1.992.31-1.311.907-2.724.907-3.669 0-.847-.45-1.552-1.395-1.552-1.105 0-1.994 1.145-1.994 2.676 0 .976.329 1.636.329 1.636s-1.13 4.795-1.329 5.634c-.396 1.673-.06 3.724-.029 3.929.021.123.179.152.244.062.104-.135 1.42-1.76 1.866-3.385.126-.461.729-2.842.729-2.842.359.686 1.408 1.287 2.523 1.287 3.323 0 5.579003-3.03 5.579003-7.086.002997-3.067-2.596003-5.923-6.543003-5.923z" fill="#000"/><g fill="#000" transform="translate(147 34)"><circle cx="2" cy="14" r="2"/><path d="m0 0v2.5c7.44 0 13.5 6.057 13.5 13.5h2.5c0-8.836-7.163-16-16-16z"/><path d="m0 5.875v2.5c4.204 0 7.625 3.42 7.625 7.625h2.5c0-5.592-4.534-10.125-10.125-10.125z"/></g><g fill="#000" transform="translate(299 34)"><path d="m10 16-4-4-4 4v-16h8z"/><path d="m-.004 0h1v16h-1z"/><path d="m10.996 0h1v16h-1z"/></g><path d="m5.798 64.012c-1.689 0-3.073 1.383-3.073 3.072v2.195h-2.687v3.951h2.688v6.77h3.952v-6.77h3.285v-3.951h-3.34v-.658c0-.371.146-.658.714-.658h2.626v-3.951z" fill="#9fa7be"/><path d="m39.528 76.475h-5.229c-.972 0-1.763-.789-1.763-1.762v-2.744h6.99c.978 0 1.767-.789 1.767-1.764 0-.973-.789-1.762-1.767-1.762h-6.99v-2.672c0-.978-.789-1.767-1.766-1.767-.974 0-1.763.789-1.763 1.767v8.938c0 2.916 2.371 5.287 5.287 5.287h5.229c.978 0 1.767-.789 1.767-1.766.001-.964-.788-1.755-1.762-1.755z" fill="#9fa7be"/><g fill="#9fa7be"><g transform="translate(57 72)"><path d="m0 0v8h16v-8zm4.32 6.795h-.896v-4.954h-.924v-.841h2.746v.841h-.926zm3.183 0h-.794v-.473c-.146.174-.299.307-.457.396s-.312.137-.462.137c-.188 0-.322-.062-.415-.188-.096-.128-.142-.317-.142-.572v-3.575h.795v3.277c0 .102.02.174.053.221.029.044.086.067.161.067.06 0 .133-.03.222-.091s.172-.137.246-.228v-3.246h.794zm3.06-.886c0 .304-.062.536-.188.696-.125.162-.309.242-.54.242-.154 0-.293-.031-.416-.099-.121-.06-.234-.156-.338-.286v.329h-.806v-5.791h.808v1.865c.104-.131.22-.229.34-.297s.241-.104.363-.104c.252 0 .44.093.572.272.137.183.2.447.2.798zm2.937-1.151h-1.52v.807c0 .229.026.381.078.472.053.087.146.131.271.131.131 0 .224-.037.272-.108.052-.07.078-.234.078-.486v-.304h.82v.32c0 .438-.103.77-.299.989-.199.222-.497.333-.896.333-.354 0-.636-.117-.84-.354-.204-.238-.306-.561-.306-.973v-1.915c0-.371.108-.674.337-.906.225-.229.515-.352.87-.352.359 0 .643.107.838.324.191.216.293.527.293.934z"/><path d="m9.412 3.145c-.06 0-.111.02-.167.043-.06.027-.109.07-.163.131v2.661c.062.07.127.122.188.15.062.031.125.047.192.047.097 0 .169-.03.214-.09.046-.06.068-.157.068-.294v-2.207c0-.145-.027-.254-.084-.329-.056-.073-.139-.112-.248-.112z"/><path d="m12.336 3.16c-.127 0-.219.039-.274.117-.055.076-.081.205-.081.384v.433h.701v-.433c0-.179-.027-.308-.082-.384-.056-.078-.144-.117-.264-.117z"/></g><g transform="translate(59 64)"><path d="m.5 0h1.099l.705 2.82h.07l.674-2.82h1.104l-1.267 4.129v2.928h-1.091v-2.797z"/><path d="m4.107 3.041c0-.402.128-.725.395-.963.258-.24.605-.357 1.048-.357.396 0 .729.125.98.377.259.252.388.576.388.972v2.69c0 .445-.127.795-.376 1.049-.252.253-.598.38-1.036.38-.424 0-.762-.131-1.02-.396-.254-.26-.38-.612-.38-1.054v-2.698zm.995 2.797c0 .143.033.254.104.332.065.078.167.117.295.117.132 0 .232-.041.312-.121s.116-.189.116-.328v-2.836c0-.113-.04-.205-.118-.275-.079-.067-.181-.104-.311-.104-.118 0-.214.035-.288.104-.073.07-.11.162-.11.275z"/><path d="m10.5 1.852v5.205h-.97v-.575c-.179.211-.362.373-.558.483-.192.111-.38.166-.56.166-.228 0-.396-.076-.511-.23-.11-.151-.17-.389-.17-.692v-4.355h.973v3.989c0 .123.019.214.061.269.039.057.105.083.195.083.072 0 .161-.034.271-.108.11-.073.207-.166.298-.276v-3.952h.971z"/></g></g><g fill="#9fa7be" transform="translate(87 63)"><path d="m5.624 4.541h-3.837l1.297 3.688-2.27 4.281h3.836l2.271-4.281z"/><path d="m15.99.969h-3.838l-5.11 9.633 3.899 6.356h3.836l-3.899-6.356z"/></g><path d="m220.5 75c-.67 0-1.275.268-1.729.695l-4.934-2.713c.099-.313.163-.638.163-.982s-.064-.669-.157-.982l4.935-2.713c.447.427 1.052.695 1.722.695 1.381 0 2.5-1.119 2.5-2.5s-1.119-2.5-2.5-2.5-2.5 1.119-2.5 2.5c0 .168.018.333.05.492l-4.929 2.71c-.645-.731-1.571-1.202-2.621-1.202-1.938 0-3.5 1.566-3.5 3.5s1.562 3.5 3.5 3.5c1.05 0 1.979-.471 2.621-1.202l4.929 2.71c-.032.159-.05.323-.05.492 0 1.381 1.119 2.5 2.5 2.5s2.5-1.119 2.5-2.5-1.119-2.5-2.5-2.5z" fill="#9fa7be"/><g fill="#9fa7be"><path d="m3.632 16v-10.318h-3.43v10.318zm-1.714-11.729c1.191 0 1.938-.791 1.938-1.783-.021-1.011-.744-1.782-1.918-1.782s-1.938.771-1.938 1.782c0 .992.744 1.783 1.896 1.783z" transform="translate(267 64)"/><path d="m.529 11h3.435v-5.762c0-.309.021-.617.109-.838.247-.616.812-1.254 1.761-1.254 1.242 0 1.732.94 1.732 2.332v5.522h3.434v-5.917c0-3.169-1.691-4.646-3.949-4.646-1.85 0-2.662 1.035-3.113 1.735h.022v-1.49h-3.433c.048.966.002 10.318.002 10.318z" transform="translate(272 69)"/></g><g fill="#9fa7be" transform="translate(177 64)"><path d="m13.318 6.969.912 1.031h-4.23v2h-4v-2h-4.21l2.21-2.5h5.9c-.354-.436-.613-.941-.762-1.5h-5.138l-3.979 4h-.021v8h16v-6-2l-1.355-1.363c-.411.185-.858.293-1.327.332z"/><path d="m11.348 5.5c.317.211.676.363 1.062.439.192.04.388.061.59.061.305 0 .591-.059.867-.143 1.231-.375 2.133-1.505 2.133-2.857 0-1.654-1.35-3-3-3-1.654 0-3 1.346-3 3 0 .354.068.686.186 1 .218.617.625 1.145 1.162 1.5zm-.348-3h1.5v-1.5h1v1.5h1.5v1h-1.5v1.5h-1v-1.5h-1.5z"/></g><g fill="#9fa7be" transform="translate(117 64)"><path d="m15.998 14.1v-8l-4.999 4z"/><path d="m8.001 0-7.999 6.1h15.998z"/><path d="m5 10.1-5-4v8z"/><path d="m9.999 10.898-2 1.601-2-1.601-5.999 4.799v.303h15.998v-.303z"/></g><path d="m245.422 64c-4.912 0-7.393 3.521-7.393 6.459 0 1.777.677 3.359 2.115 3.95.237.097.449.003.521-.259.048-.187.161-.644.211-.83.066-.26.043-.354-.147-.576-.416-.491-.682-1.127-.682-2.028 0-2.612 1.954-4.952 5.09-4.952 2.776 0 4.301 1.697 4.301 3.963 0 2.981-1.313 5.498-3.272 5.498-1.082 0-1.896-.895-1.631-1.992.31-1.311.907-2.724.907-3.67 0-.847-.45-1.551-1.395-1.551-1.105 0-1.994 1.145-1.994 2.676 0 .979.329 1.64.329 1.64s-1.13 4.795-1.329 5.634c-.396 1.673-.06 3.727-.029 3.932.021.121.179.149.244.061.104-.133 1.42-1.758 1.866-3.383.126-.461.729-2.844.729-2.844.359.686 1.408 1.285 2.523 1.285 3.323 0 5.579003-3.025 5.579003-7.085.002997-3.073-2.596003-5.928-6.543003-5.928z" fill="#9fa7be"/><g fill="#9fa7be" transform="translate(147 64)"><circle cx="2" cy="14" r="2"/><path d="m0 0v2.5c7.44 0 13.5 6.057 13.5 13.5h2.5c0-8.836-7.163-16-16-16z"/><path d="m0 5.875v2.5c4.204 0 7.625 3.42 7.625 7.625h2.5c0-5.592-4.534-10.125-10.125-10.125z"/></g><g fill="#9fa7be" transform="translate(299 64)"><path d="m10 16-4-4-4 4v-16h8z"/><path d="m-.004 0h1v16h-1z"/><path d="m10.996 0h1v16h-1z"/></g><g fill="#575757" transform="translate(2395)"><path d="m19.998 6.999h-7v-6.999z"/><path d="m5.81 16.207c-.657 0-.918.909-.918 1.62 0 .756.216 1.603.937 1.603.633 0 .838-.711.838-1.611-.003-.65-.094-1.612-.857-1.612z"/><path d="m12 7.992v-7.992h-12v24h20v-16zm-5.947 12.068c-.711 0-1.035-.441-1.146-.684h-.018v2.512h-.814v-6.212h.812v.647h.018c.104-.243.486-.747 1.188-.747 1.031 0 1.46802206.945 1.46802206 2.169.00397794 1.432-.53602206 2.315-1.50802206 2.315zm5.706-.1h-.812v-.657h-.019c-.092.243-.44.756-1.188.756-1.044 0-1.467-.945-1.467-2.17 0-1.422.54-2.313 1.512-2.313.712 0 1.046.441 1.146.693h.019v-2.521h.812zm4.157-5.554c-.252-.072-.504-.126-.854-.126-.647 0-.837.521-.837.954v.441h1.277v.63h-1.277v3.655h-.811v-3.655h-.774v-.63h.774v-.495c0-1.008.537-1.531 1.639-1.531.271 0 .595.018.863.081z"/><path d="m10.013 16.207c-.63 0-.837.711-.837 1.611 0 .648.09 1.611.846 1.611.657 0 .928-.909.928-1.621-.002-.746-.218-1.601-.937-1.601z"/></g><g fill="#fff" transform="translate(2425)"><path d="m19.998 6.999h-7v-6.999z"/><path d="m5.81 16.207c-.657 0-.918.909-.918 1.62 0 .756.216 1.603.937 1.603.633 0 .838-.711.838-1.611-.003-.65-.094-1.612-.857-1.612z"/><path d="m12 7.992v-7.992h-12v24h20v-16zm-5.947 12.068c-.711 0-1.035-.441-1.146-.684h-.018v2.512h-.814v-6.212h.812v.647h.018c.104-.243.486-.747 1.188-.747 1.031 0 1.46802206.945 1.46802206 2.169.00397794 1.432-.53602206 2.315-1.50802206 2.315zm5.706-.1h-.812v-.657h-.019c-.092.243-.44.756-1.188.756-1.044 0-1.467-.945-1.467-2.17 0-1.422.54-2.313 1.512-2.313.712 0 1.046.441 1.146.693h.019v-2.521h.812zm4.157-5.554c-.252-.072-.504-.126-.854-.126-.647 0-.837.521-.837.954v.441h1.277v.63h-1.277v3.655h-.811v-3.655h-.774v-.63h.774v-.495c0-1.008.537-1.531 1.639-1.531.271 0 .595.018.863.081z"/><path d="m10.013 16.207c-.63 0-.837.711-.837 1.611 0 .648.09 1.611.846 1.611.657 0 .928-.909.928-1.621-.002-.746-.218-1.601-.937-1.601z"/></g><g fill="#93a1ba" transform="translate(2395 30)"><path d="m19.998 7.018h-7v-6.999z"/><path d="m12 8.011v-7.992h-12v24h20v-16zm-4.737 8.313h-1.19v2.287c0 .387.056.836.688.836.145 0 .312-.026.433-.062v.631c-.207.045-.424.062-.64.062-1.035 0-1.287-.459-1.287-1.044v-2.71h-.767v-.631h.768v-1.007l.812-.504v1.513h1.188zm3.294 3.655-1.044-1.558-1.063 1.558h-.943l1.538-2.26-1.356-2.025h.945l.873 1.314.872-1.314h.942l-1.355 2.025 1.538 2.26zm4.041-3.655h-1.188v2.287c0 .387.058.836.688.836.145 0 .312-.026.433-.062v.631c-.208.045-.424.062-.64.062-1.035 0-1.287-.459-1.287-1.044v-2.71h-.77v-.631h.77v-1.007l.812-.504v1.513h1.188z"/></g><g fill="#f39200" transform="translate(2395 60)"><path d="m19.998 7.037h-7v-6.999z"/><path d="m12.56 16.244c-.657 0-.918.908-.918 1.619 0 .757.216 1.604.937 1.604.633 0 .838-.711.838-1.611-.003-.649-.094-1.612-.857-1.612z"/><path d="m12 8.029v-7.991h-12v24h20v-16zm-4.354 11.969h-3.144v-.63l2.08-3.024h-1.944v-.631h2.927v.612l-2.08 3.042h2.161zm1.754 0h-.812v-4.285h.812zm.081-5.293h-.973v-.918h.973zm3.322 5.393c-.711 0-1.035-.438-1.146-.685h-.018v2.512h-.812v-6.212h.812v.648h.018c.104-.243.486-.748 1.188-.748 1.032 0 1.4680055.945 1.4680055 2.17.0019945 1.432-.5380055 2.315-1.5100055 2.315z"/></g><g fill="#fff" transform="translate(2425 30)"><path d="m19.998 7.018h-7v-6.999z"/><path d="m12 8.011v-7.992h-12v24h20v-16zm-4.737 8.313h-1.19v2.287c0 .387.056.836.688.836.145 0 .312-.026.433-.062v.631c-.207.045-.424.062-.64.062-1.035 0-1.287-.459-1.287-1.044v-2.71h-.767v-.631h.768v-1.007l.812-.504v1.513h1.188zm3.294 3.655-1.044-1.558-1.063 1.558h-.943l1.538-2.26-1.356-2.025h.945l.873 1.314.872-1.314h.942l-1.355 2.025 1.538 2.26zm4.041-3.655h-1.188v2.287c0 .387.058.836.688.836.145 0 .312-.026.433-.062v.631c-.208.045-.424.062-.64.062-1.035 0-1.287-.459-1.287-1.044v-2.71h-.77v-.631h.77v-1.007l.812-.504v1.513h1.188z"/></g><g fill="#fff" transform="translate(2425 60)"><path d="m19.998 7.037h-7v-6.999z"/><path d="m12.56 16.244c-.657 0-.918.908-.918 1.619 0 .757.216 1.604.937 1.604.633 0 .838-.711.838-1.611-.003-.649-.094-1.612-.857-1.612z"/><path d="m12 8.029v-7.991h-12v24h20v-16zm-4.354 11.969h-3.144v-.63l2.08-3.024h-1.944v-.631h2.927v.612l-2.08 3.042h2.161zm1.754 0h-.812v-4.285h.812zm.081-5.293h-.973v-.918h.973zm3.322 5.393c-.711 0-1.035-.438-1.146-.685h-.018v2.512h-.812v-6.212h.812v.648h.018c.104-.243.486-.748 1.188-.748 1.032 0 1.4680055.945 1.4680055 2.17.0019945 1.432-.5380055 2.315-1.5100055 2.315z"/></g><path d="m2529 0h-2.83l-5.17 12 5.17 12h2.83l-5.17-12z" fill="#fff"/><path d="m2551 24h2.83l5.17-12-5.17-12h-2.83l5.17 12z" fill="#fff"/><path d="m2529 30h-2.83l-5.17 12 5.17 12h2.83l-5.17-12z" fill="#000"/><path d="m2551 54h2.83l5.17-12-5.17-12h-2.83l5.17 12z" fill="#000"/><path d="m2529 60h-2.83l-5.17 12 5.17 12h2.83l-5.17-12z" fill="#b2b2b2"/><path d="m2551 84h2.83l5.17-12-5.17-12h-2.83l5.17 12z" fill="#b2b2b2"/><path d="m2583 4-6 6h2v6h2.5v-4h3v4h2.5v-6h2z" fill="#fff"/><path d="m2583 34-6 6h2v6h2.5v-4h3v4h2.5v-6h2z" fill="#000"/><path d="m2583 64-6 6h2v6h2.5v-4h3v4h2.5v-6h2z" fill="#9fa7be"/><g fill="#fff" transform="translate(2605 2)"><path d="m10 2c4.418 0 8 3.582 8 8s-3.582 8-8 8-8-3.582-8-8 3.582-8 8-8zm0-2c-5.516 0-10 4.486-10 10s4.482 10 10 10c5.514 0 10-4.486 10-10s-4.486-10-10-10z"/><path d="m6 11.829 3-2.999v6.17h2v-6.17l3 2.999v-2.828l-4-4.001-4 4.001z"/></g><g fill="#000" transform="translate(2605 32)"><path d="m10 2c4.418 0 8 3.582 8 8s-3.582 8-8 8-8-3.582-8-8 3.582-8 8-8zm0-2c-5.516 0-10 4.486-10 10s4.482 10 10 10c5.514 0 10-4.486 10-10s-4.486-10-10-10z"/><path d="m6 11.829 3-2.999v6.17h2v-6.17l3 2.999v-2.828l-4-4.001-4 4.001z"/></g><g fill="#9fa7be" transform="translate(2605 62)"><path d="m10 2c4.418 0 8 3.582 8 8s-3.582 8-8 8-8-3.582-8-8 3.582-8 8-8zm0-2c-5.516 0-10 4.486-10 10s4.482 10 10 10c5.514 0 10-4.486 10-10s-4.486-10-10-10z"/><path d="m6 11.829 3-2.999v6.17h2v-6.17l3 2.999v-2.828l-4-4.001-4 4.001z"/></g><g fill="#fff" transform="translate(2488 3)"><path d="m6.183 4.473v-2.965l-1.36-.493v3.951z"/><path d="m13.008 15.19.252-1.423-2.568-1.484-1.105.932z"/><path d="m12.875 15.48-3.459-1.974c-.703 1.219-2.312 1.27-2.926.026-.516-1.045-1.016-2.096-1.6-3.107-.271.157-.272.155-.001-.002-.584-1.011-1.243-1.97-1.894-2.938-.77-1.154.076-2.518 1.485-2.519l.02-3.982c-2.368.187-3.496 2.49-3.729 4.64-.231 2.119.81 4.351 1.832 6.122.264-.152.264-.152 0 0 1.021 1.772 2.435 3.789 4.386 4.647 1.982.871 4.54 1.046 5.886-.913z"/></g><g fill="#000" transform="translate(2488 33)"><path d="m6.183 4.473v-2.965l-1.36-.493v3.951z"/><path d="m13.008 15.189.252-1.422-2.568-1.484-1.105.932z"/><path d="m12.875 15.48-3.459-1.977c-.703 1.221-2.312 1.271-2.926.025-.516-1.045-1.016-2.095-1.6-3.106-.271.157-.272.155-.001-.002-.582-1.01-1.241-1.969-1.891-2.937-.771-1.154.075-2.518 1.484-2.519l.018-3.982c-2.368.187-3.496 2.49-3.729 4.64-.231 2.119.81 4.351 1.832 6.122.264-.152.264-.152 0 0 1.021 1.771 2.435 3.789 4.386 4.646 1.982.874 4.54 1.049 5.886-.91z"/></g><g fill="#9fa7be" transform="translate(2488 63)"><path d="m6.183 4.473v-2.965l-1.36-.492v3.95z"/><path d="m13.008 15.189.252-1.422-2.568-1.484-1.105.932z"/><path d="m12.875 15.48-3.459-1.978c-.703 1.222-2.312 1.271-2.926.024-.516-1.047-1.016-2.098-1.6-3.105-.271.157-.272.155-.001-.002-.582-1.009-1.241-1.968-1.891-2.937-.771-1.152.075-2.518 1.484-2.519l.018-3.981c-2.368.188-3.496 2.491-3.729 4.641-.231 2.119.81 4.352 1.832 6.122.264-.152.264-.152 0 0 1.021 1.771 2.435 3.789 4.386 4.646 1.982.873 4.54 1.048 5.886-.911z"/></g><path d="m2647.768 13.632c.771-1.009 1.232-2.265 1.232-3.632s-.463-2.623-1.232-3.632c0-.001-.001-.002-.001-.002-.157-.206-.323-.404-.505-.587-.002-.002-.004-.005-.006-.008-.646-.648-1.439-1.146-2.324-1.447h-.001c-.159-.054-.32-.1-.483-.14-.008-.002-.016-.004-.021-.006-.46-.113-.937-.178-1.427-.178-.492 0-.971.065-1.429.177-.007.002-.015.004-.021.006-.163.041-.324.086-.482.14h-.002c-.885.301-1.68.799-2.324 1.447-.002.002-.004.005-.006.008-.182.183-.348.381-.505.587 0 0-.001.001-.001.002-.77 1.01-1.23 2.266-1.23 3.633s.461 2.623 1.229 3.632c0 .001.001.002.001.002.157.206.323.404.505.587.002.002.004.005.006.008.646.648 1.439 1.146 2.324 1.447h.002c.158.054.319.1.48.14.01.002.018.004.021.006.458.112.933.177 1.425.177s.967-.065 1.426-.177c.01-.002.018-.004.021-.006.163-.041.324-.086.482-.14h.002c.885-.301 1.68-.799 2.321-1.447.002-.002.004-.005.009-.008.182-.183.348-.381.504-.587.009 0 .01-.001.01-.002zm-1.789-.619c.219-.847.35-1.729.377-2.638h1.875c-.079 1.125-.511 2.154-1.189 2.973-.349-.127-.701-.243-1.063-.335zm2.251-3.388h-1.875c-.027-.909-.158-1.791-.377-2.638.362-.093.715-.208 1.062-.335.68.819 1.111 1.848 1.19 2.973zm-1.769-3.563c-.229.075-.455.143-.688.203-.104-.312-.223-.617-.353-.917.379.196.725.437 1.041.714zm-1.43.369c-.541.099-1.096.156-1.656.175v-1.837c.35.025.688.084 1.016.174.246.479.47.971.64 1.488zm-3.422-1.488c.327-.09.666-.149 1.017-.174v1.837c-.562-.019-1.116-.076-1.657-.175.17-.517.394-1.009.64-1.488zm1.016 2.413v2.269h-2.23c.027-.851.15-1.675.357-2.468.609.116 1.236.179 1.873.199zm0 3.019v2.269c-.641.02-1.268.083-1.873.199-.207-.793-.33-1.617-.357-2.468zm-1.66 3.194c.541-.099 1.096-.156 1.66-.175v1.837c-.354-.025-.688-.084-1.02-.174-.242-.479-.466-.971-.64-1.488zm2.41-.175c.562.019 1.115.076 1.656.175-.174.517-.396 1.009-.645 1.488-.327.09-.666.149-1.02.174v-1.837zm0-.75v-2.269h2.229c-.027.851-.15 1.675-.357 2.468-.608-.116-1.235-.179-1.872-.199zm0-3.019v-2.269c.637-.02 1.264-.083 1.871-.199.205.793.33 1.617.355 2.468zm-2.802-4.277c-.128.3-.248.604-.351.917-.232-.06-.46-.128-.688-.203.321-.277.664-.518 1.039-.714zm-.552 1.639c-.219.847-.351 1.729-.377 2.638h-1.875c.079-1.125.511-2.154 1.188-2.973.35.127.699.243 1.064.335zm-2.251 3.388h1.875c.027.909.158 1.791.377 2.638-.362.093-.715.208-1.062.335-.68-.819-1.111-1.848-1.19-2.973zm1.769 3.563c.227-.075.45-.143.687-.203.103.312.222.617.351.917-.379-.196-.722-.437-1.038-.714zm5.885.714c.129-.3.248-.604.351-.917.232.06.46.128.688.203-.318.277-.664.518-1.039.714z" fill="#fff"/><path d="m2647.768 13.632c.771-1.009 1.232-2.265 1.232-3.632s-.463-2.623-1.232-3.632c0-.001-.001-.002-.001-.002-.157-.206-.323-.404-.505-.587-.002-.002-.004-.005-.006-.008-.646-.648-1.439-1.146-2.324-1.447h-.001c-.159-.054-.32-.1-.483-.14-.008-.002-.016-.004-.021-.006-.46-.113-.937-.178-1.427-.178-.492 0-.971.065-1.429.177-.007.002-.015.004-.021.006-.163.041-.324.086-.482.14h-.002c-.885.301-1.68.799-2.324 1.447-.002.002-.004.005-.006.008-.182.183-.348.381-.505.587 0 0-.001.001-.001.002-.77 1.01-1.23 2.266-1.23 3.633s.461 2.623 1.229 3.632c0 .001.001.002.001.002.157.206.323.404.505.587.002.002.004.005.006.008.646.648 1.439 1.146 2.324 1.447h.002c.158.054.319.1.48.14.01.002.018.004.021.006.458.112.933.177 1.425.177s.967-.065 1.426-.177c.01-.002.018-.004.021-.006.163-.041.324-.086.482-.14h.002c.885-.301 1.68-.799 2.321-1.447.002-.002.004-.005.009-.008.182-.183.348-.381.504-.587.009 0 .01-.001.01-.002zm-1.789-.619c.219-.847.35-1.729.377-2.638h1.875c-.079 1.125-.511 2.154-1.189 2.973-.349-.127-.701-.243-1.063-.335zm2.251-3.388h-1.875c-.027-.909-.158-1.791-.377-2.638.362-.093.715-.208 1.062-.335.68.819 1.111 1.848 1.19 2.973zm-1.769-3.563c-.229.075-.455.143-.688.203-.104-.312-.223-.617-.353-.917.379.196.725.437 1.041.714zm-1.43.369c-.541.099-1.096.156-1.656.175v-1.837c.35.025.688.084 1.016.174.246.479.47.971.64 1.488zm-3.422-1.488c.327-.09.666-.149 1.017-.174v1.837c-.562-.019-1.116-.076-1.657-.175.17-.517.394-1.009.64-1.488zm1.016 2.413v2.269h-2.23c.027-.851.15-1.675.357-2.468.609.116 1.236.179 1.873.199zm0 3.019v2.269c-.641.02-1.268.083-1.873.199-.207-.793-.33-1.617-.357-2.468zm-1.66 3.194c.541-.099 1.096-.156 1.66-.175v1.837c-.354-.025-.688-.084-1.02-.174-.242-.479-.466-.971-.64-1.488zm2.41-.175c.562.019 1.115.076 1.656.175-.174.517-.396 1.009-.645 1.488-.327.09-.666.149-1.02.174v-1.837zm0-.75v-2.269h2.229c-.027.851-.15 1.675-.357 2.468-.608-.116-1.235-.179-1.872-.199zm0-3.019v-2.269c.637-.02 1.264-.083 1.871-.199.205.793.33 1.617.355 2.468zm-2.802-4.277c-.128.3-.248.604-.351.917-.232-.06-.46-.128-.688-.203.321-.277.664-.518 1.039-.714zm-.552 1.639c-.219.847-.351 1.729-.377 2.638h-1.875c.079-1.125.511-2.154 1.188-2.973.35.127.699.243 1.064.335zm-2.251 3.388h1.875c.027.909.158 1.791.377 2.638-.362.093-.715.208-1.062.335-.68-.819-1.111-1.848-1.19-2.973zm1.769 3.563c.227-.075.45-.143.687-.203.103.312.222.617.351.917-.379-.196-.722-.437-1.038-.714zm5.885.714c.129-.3.248-.604.351-.917.232.06.46.128.688.203-.318.277-.664.518-1.039.714z" fill="#fff"/><path d="m2647.768 43.632c.771-1.009 1.232-2.265 1.232-3.632s-.463-2.623-1.232-3.632c0-.001-.001-.002-.001-.002-.157-.206-.323-.404-.505-.587-.002-.002-.004-.005-.006-.008-.646-.648-1.439-1.146-2.324-1.447h-.001c-.159-.054-.32-.1-.483-.14-.008-.002-.016-.004-.021-.006-.46-.113-.937-.178-1.427-.178-.492 0-.971.065-1.429.177-.007.002-.015.004-.021.006-.163.041-.324.086-.482.14h-.002c-.885.301-1.68.799-2.324 1.447-.002.002-.004.005-.006.008-.182.183-.348.381-.505.587 0 0-.001.001-.001.002-.771 1.01-1.23 2.266-1.23 3.633s.461 2.623 1.229 3.632c0 .001.001.002.001.002.157.206.323.404.505.587.002.002.004.005.007.008.646.648 1.438 1.146 2.323 1.447h.002c.158.055.319.1.481.141.009.002.017.004.021.008.458.109.935.177 1.427.177.49 0 .968-.063 1.427-.177.007-.004.015-.006.021-.008.163-.041.324-.086.482-.141h.002c.885-.301 1.68-.799 2.322-1.447.002-.002.004-.005.008-.008.182-.183.348-.381.504-.587.005 0 .006-.001.006-.002zm-1.789-.619c.219-.847.35-1.729.377-2.638h1.875c-.079 1.125-.511 2.154-1.189 2.973-.349-.127-.701-.243-1.063-.335zm2.251-3.388h-1.875c-.027-.909-.158-1.791-.377-2.638.362-.093.715-.208 1.062-.335.68.819 1.111 1.848 1.19 2.973zm-1.769-3.563c-.229.075-.455.143-.688.203-.104-.312-.223-.617-.353-.917.379.196.725.437 1.041.714zm-1.43.369c-.541.099-1.096.156-1.656.175v-1.837c.35.025.688.084 1.016.174.246.479.47.971.64 1.488zm-3.422-1.488c.327-.09.666-.149 1.017-.174v1.837c-.562-.019-1.116-.076-1.657-.175.17-.517.394-1.009.64-1.488zm1.016 2.413v2.269h-2.23c.027-.851.15-1.675.357-2.468.609.116 1.236.179 1.873.199zm0 3.019v2.269c-.641.02-1.268.083-1.873.199-.207-.793-.33-1.617-.357-2.468zm-1.66 3.194c.541-.099 1.096-.156 1.66-.175v1.836c-.354-.024-.688-.084-1.02-.174-.242-.478-.466-.97-.64-1.487zm2.41-.175c.562.019 1.115.076 1.656.175-.174.517-.396 1.009-.645 1.488-.327.09-.666.149-1.02.174v-1.836zm0-.75v-2.269h2.229c-.027.851-.15 1.675-.357 2.468-.608-.116-1.235-.179-1.872-.199zm0-3.019v-2.269c.637-.02 1.264-.083 1.871-.199.205.793.33 1.617.355 2.468zm-2.802-4.277c-.128.3-.248.604-.351.917-.232-.06-.46-.128-.688-.203.321-.277.664-.518 1.039-.714zm-.552 1.639c-.219.847-.351 1.729-.377 2.638h-1.875c.079-1.125.511-2.154 1.188-2.973.35.127.699.243 1.064.335zm-2.251 3.388h1.875c.027.909.158 1.791.377 2.638-.362.093-.715.208-1.062.335-.68-.819-1.111-1.848-1.19-2.973zm1.769 3.563c.227-.075.45-.143.687-.203.103.312.222.617.351.917-.379-.196-.722-.437-1.038-.714zm5.885.714c.129-.3.248-.604.351-.917.232.06.46.128.688.203-.318.277-.664.518-1.039.714z" fill="#000"/><path d="m2647.768 73.632c.771-1.009 1.232-2.265 1.232-3.632s-.463-2.623-1.232-3.632c0-.001-.001-.003-.001-.003-.157-.205-.323-.403-.505-.586-.002-.002-.004-.006-.006-.008-.646-.648-1.439-1.146-2.324-1.447h-.001c-.159-.055-.32-.1-.483-.141-.008-.002-.016-.004-.021-.009-.46-.11-.938-.175-1.427-.175-.492 0-.971.064-1.429.178-.007.002-.015.004-.021.006-.163.041-.324.086-.482.142h-.002c-.885.302-1.68.8-2.324 1.444-.002.002-.004.006-.006.008-.182.187-.348.385-.505.591 0 0-.001 0-.001.002-.771 1.01-1.23 2.266-1.23 3.633s.461 2.623 1.229 3.632c0 .001.001.004.001.004.157.204.323.402.505.588.002.002.004.006.007.008.646.646 1.438 1.146 2.323 1.445h.002c.158.057.319.102.481.143.009.002.017.004.021.006.458.111.935.177 1.427.177.49 0 .968-.065 1.427-.177.007-.002.015-.004.021-.006.163-.041.324-.086.482-.143h.002c.885-.302 1.68-.8 2.322-1.445.002-.002.004-.004.008-.008.182-.186.348-.384.504-.588.005-.004.006-.006.006-.007zm-1.789-.618c.219-.848.35-1.729.377-2.639h1.875c-.079 1.125-.511 2.154-1.189 2.973-.349-.127-.701-.243-1.063-.334zm2.251-3.389h-1.875c-.027-.909-.158-1.791-.377-2.639.362-.092.715-.207 1.062-.334.68.819 1.111 1.848 1.19 2.973zm-1.769-3.563c-.229.071-.455.143-.688.203-.104-.312-.223-.617-.353-.918.379.197.725.438 1.041.715zm-1.43.37c-.541.101-1.096.155-1.656.174v-1.836c.35.024.688.084 1.016.174.246.478.47.97.64 1.488zm-3.422-1.489c.327-.09.666-.149 1.017-.174v1.836c-.562-.021-1.116-.076-1.657-.174.17-.517.394-1.009.64-1.488zm1.016 2.412v2.27h-2.23c.027-.852.15-1.675.357-2.469.609.117 1.236.18 1.873.199zm0 3.02v2.27c-.641.021-1.268.082-1.873.199-.207-.794-.33-1.617-.357-2.469zm-1.66 3.193c.541-.101 1.096-.155 1.66-.174v1.836c-.354-.024-.688-.084-1.02-.174-.242-.478-.466-.97-.64-1.488zm2.41-.173c.562.021 1.115.076 1.656.174-.174.521-.396 1.013-.645 1.488-.327.09-.666.149-1.02.174v-1.836zm0-.75v-2.27h2.229c-.027.852-.15 1.675-.357 2.469-.608-.117-1.235-.18-1.872-.199zm0-3.02v-2.27c.637-.021 1.264-.082 1.871-.199.205.794.33 1.617.355 2.469zm-2.802-4.277c-.128.301-.248.604-.351.918-.232-.061-.46-.129-.688-.203.321-.278.664-.519 1.039-.715zm-.552 1.638c-.219.848-.351 1.729-.377 2.639h-1.875c.079-1.125.511-2.154 1.188-2.973.35.127.699.243 1.064.334zm-2.251 3.389h1.875c.027.909.158 1.791.377 2.639-.362.092-.715.207-1.062.334-.68-.819-1.111-1.848-1.19-2.973zm1.769 3.563c.227-.071.45-.143.687-.203.103.312.222.617.351.918-.379-.197-.722-.438-1.038-.715zm5.885.714c.129-.301.248-.604.351-.918.232.061.46.129.688.203-.318.278-.664.519-1.039.715z" fill="#9fa7be"/><path d="m2712.99 8.814c-.071 1.638-1.219 3.88-3.43 6.728-2.287 2.971-4.224 4.458-5.806 4.458-.979 0-1.812-.905-2.487-2.716-.451-1.66-.904-3.32-1.354-4.979-.504-1.81-1.043-2.717-1.618-2.717-.127 0-.566.266-1.32.793l-.791-1.021c.829-.729 1.647-1.458 2.454-2.189 1.105-.957 1.938-1.46 2.491-1.511 1.311-.125 2.114.77 2.416 2.685.327 2.067.555 3.354.682 3.856.377 1.715.793 2.572 1.246 2.572.354 0 .881-.557 1.586-1.669.704-1.112 1.082-1.959 1.133-2.541.104-.96-.272-1.441-1.133-1.441-.402 0-.815.093-1.244.276.826-2.708 2.405-4.024 4.736-3.949 1.724.052 2.541 1.173 2.439 3.365z" fill="#fff"/><path d="m2712.99 38.814c-.071 1.638-1.219 3.88-3.43 6.728-2.287 2.972-4.224 4.458-5.806 4.458-.979 0-1.812-.904-2.487-2.716-.451-1.66-.904-3.32-1.354-4.979-.504-1.81-1.043-2.717-1.618-2.717-.127 0-.566.266-1.32.793l-.791-1.021c.829-.729 1.647-1.458 2.454-2.189 1.105-.957 1.938-1.46 2.491-1.511 1.311-.125 2.114.77 2.416 2.685.327 2.067.555 3.354.682 3.856.377 1.715.793 2.572 1.246 2.572.354 0 .881-.557 1.586-1.669.704-1.112 1.082-1.959 1.133-2.541.104-.96-.272-1.441-1.133-1.441-.402 0-.815.093-1.244.276.826-2.708 2.405-4.024 4.736-3.949 1.724.052 2.541 1.173 2.439 3.365z" fill="#000"/><path d="m2712.99 68.814c-.071 1.638-1.219 3.879-3.43 6.728-2.287 2.972-4.224 4.458-5.806 4.458-.979 0-1.812-.904-2.487-2.716-.451-1.66-.904-3.32-1.354-4.979-.504-1.81-1.043-2.717-1.618-2.717-.127 0-.566.266-1.32.793l-.791-1.021c.829-.729 1.647-1.457 2.454-2.188 1.105-.957 1.938-1.46 2.491-1.511 1.311-.125 2.114.771 2.416 2.687.327 2.065.555 3.354.682 3.854.377 1.715.793 2.571 1.246 2.571.354 0 .881-.56 1.586-1.67.704-1.11 1.082-1.959 1.133-2.541.104-.959-.272-1.439-1.133-1.439-.402 0-.815.093-1.244.275.826-2.709 2.405-4.023 4.736-3.948 1.724.051 2.541 1.172 2.439 3.364z" fill="#9fa7be"/><g fill="#575757" transform="translate(2455)"><path d="m19.998 6.999h-7v-6.999z"/><path d="m12 7.992v-7.992h-12v24h20v-16z"/></g><g fill="#fff" transform="translate(2455 30)"><path d="m19.998 6.999h-7v-6.999z"/><path d="m12 7.992v-7.992h-12v24h20v-16z"/></g><g fill="#f39200" transform="translate(2455 60)"><path d="m19.998 6.999h-7v-6.999z"/><path d="m12 7.992v-7.992h-12v24h20v-16z"/></g><g fill="#fff" transform="translate(2847 4)"><path d="m10.5 12.412v1.588h-8.5v-8h2.283c.562-.796 1.279-1.484 2.143-2h-6.426v12h12.5v-5.588l-1.295 1.295z"/><path d="m15.998 5.5-5.5-5.5v4h-.498c-.17 0-.334.02-.502.034-.902.078-1.752.347-2.498.782-1.787 1.042-3 2.977-3 5.184 0 .519.07 1.02.195 1.5.635-2.42 2.746-4.24 5.303-4.457.168-.014.332-.043.502-.043h.498v4z"/></g><g fill="#000" transform="translate(2847 34)"><path d="m10.5 12.412v1.588h-8.5v-8h2.283c.562-.796 1.279-1.484 2.143-2h-6.426v12h12.5v-5.588l-1.295 1.295z"/><path d="m15.998 5.5-5.5-5.5v4h-.498c-.17 0-.334.02-.502.034-.902.078-1.752.347-2.498.782-1.787 1.042-3 2.977-3 5.184 0 .519.07 1.02.195 1.5.635-2.42 2.746-4.24 5.303-4.457.168-.014.332-.043.502-.043h.498v4z"/></g><g fill="#9fa7be" transform="translate(2847 64)"><path d="m10.5 12.412v1.588h-8.5v-8h2.283c.562-.796 1.279-1.484 2.143-2h-6.426v12h12.5v-5.588l-1.295 1.295z"/><path d="m15.998 5.5-5.5-5.5v4h-.498c-.17 0-.334.02-.502.034-.902.077-1.752.347-2.498.782-1.787 1.041-3 2.977-3 5.184 0 .52.07 1.02.195 1.5.635-2.42 2.746-4.24 5.303-4.457.168-.014.332-.043.502-.043h.498v4z"/></g><g fill="#000" transform="translate(2877 34)"><path d="m4.799 16c-3.166 0-4.584-1.575-4.584-3.135 0-.396.119-1.754 1.672-2.677 1.113-.683 2.561-.858 3.519-.934-.213-.313-.39-.677-.39-1.165 0-.207.032-.372.078-.517-.099.006-.188.01-.28.01-2.334 0-3.593-1.762-3.593-3.419 0-1.071.514-2.153 1.376-2.895 1.388-1.145 3.242-1.268 3.975-1.268h4.82l-2.084 1.311h-.69c.48.49 1.044 1.285 1.044 2.49 0 1.657-.989 2.438-1.787 3.062-.248.248-.475.473-.475.801 0 .322.215.5.423.673l.735.572c.884.744 1.79 1.507 1.79 3.022.004 2.024-1.904 4.069-5.549 4.069zm1.292-5.726c-.011 0-1.157.014-2.042.312-.385.139-1.571.568-1.571 1.854 0 1.334 1.33 2.229 3.312 2.229 1.685 0 2.729-.745 2.729-1.942 0-.886-.562-1.377-2.048-2.438-.112-.011-.2-.011-.349-.011-.011-.004-.02-.004-.031-.004zm-.988-9.024c-.458 0-.95.231-1.226.576-.265.327-.393.768-.393 1.348 0 1.171.67 3.358 2.281 3.358.423 0 .903-.199 1.201-.495.4340039-.436.4340039-1.091.4340039-1.307.0019961-1.25-.7660039-3.48-2.2970039-3.48z"/><path d="m12.271 10.03v-2.035h-2.021v-1.495h2.021v-2.023h1.483v2.023h2.027v1.495h-2.027v2.035z"/></g><g fill="#9fa7be" transform="translate(2877 63)"><path d="m4.799 17c-3.166 0-4.584-1.575-4.584-3.135 0-.396.119-1.754 1.672-2.678 1.113-.684 2.561-.857 3.519-.935-.213-.312-.39-.677-.39-1.165 0-.207.032-.372.078-.519-.096.008-.188.012-.278.012-2.334 0-3.593-1.764-3.593-3.419 0-1.071.514-2.153 1.376-2.896 1.386-1.146 3.24-1.27 3.973-1.27h4.82l-2.084 1.314h-.69c.482.489 1.044 1.284 1.044 2.489 0 1.657-.989 2.438-1.787 3.062-.248.247-.475.474-.475.802 0 .32.215.5.423.673l.735.572c.884.743 1.79 1.507 1.79 3.022.004 2.026-1.904 4.071-5.549 4.071zm1.292-5.727c-.011 0-1.157.015-2.042.312-.385.14-1.571.567-1.571 1.854 0 1.334 1.33 2.229 3.312 2.229 1.685 0 2.729-.745 2.729-1.943 0-.885-.562-1.379-2.048-2.438-.112-.012-.2-.012-.349-.012-.011-.002-.02-.002-.031-.002zm-.988-9.023c-.458 0-.95.23-1.226.576-.265.326-.393.768-.393 1.348 0 1.172.67 3.357 2.281 3.357.423 0 .903-.198 1.201-.494.4340039-.435.4340039-1.092.4340039-1.307.0019961-1.25-.7660039-3.48-2.2970039-3.48z"/><path d="m12.271 11.029v-2.034h-2.021v-1.495h2.021v-2.023h1.483v2.023h2.027v1.495h-2.027v2.034z"/></g><g fill="#fff" transform="translate(2877 4)"><path d="m4.799 16c-3.166 0-4.584-1.575-4.584-3.135 0-.396.119-1.753 1.672-2.677 1.113-.683 2.561-.858 3.519-.934-.213-.313-.39-.677-.39-1.165 0-.207.032-.372.078-.517-.099.006-.188.01-.28.01-2.334 0-3.593-1.762-3.593-3.419 0-1.071.514-2.153 1.376-2.895 1.388-1.145 3.242-1.268 3.975-1.268h4.82l-2.084 1.311h-.69c.48.49 1.044 1.285 1.044 2.49 0 1.657-.989 2.437-1.787 3.062-.248.248-.475.473-.475.801 0 .322.215.5.423.673l.735.572c.884.744 1.79 1.507 1.79 3.024.004 2.022-1.904 4.067-5.549 4.067zm1.292-5.726c-.011 0-1.157.014-2.042.312-.385.139-1.571.568-1.571 1.854 0 1.333 1.33 2.228 3.312 2.228 1.685 0 2.729-.745 2.729-1.943 0-.885-.562-1.379-2.048-2.439-.112-.011-.2-.011-.349-.011-.011-.001-.02-.001-.031-.001zm-.988-9.024c-.458 0-.95.231-1.226.576-.265.327-.393.768-.393 1.348 0 1.171.67 3.358 2.281 3.358.423 0 .903-.199 1.201-.495.4340039-.436.4340039-1.091.4340039-1.307.0019961-1.25-.7660039-3.48-2.2970039-3.48z"/><path d="m12.271 10.03v-2.035h-2.021v-1.495h2.021v-2.023h1.483v2.023h2.027v1.495h-2.027v2.035z"/></g></g><circle cx="210" cy="42" r="4" stroke="#fff"/><circle cx="220.5" cy="47.5" r="3.5" stroke="#fff"/><circle cx="220.5" cy="36.5" r="3.5" stroke="#fff"/></g><g mask="url(#a)" transform="translate(326 33)"><path d="m-4.989-5.433c2.001 0 10.778-1.28 11.996 0 .632.666.632 12.313 0 12.979-.518.543-11.48.543-11.996 0-1.438-1.51 0-10.674 0-12.979z" fill="#fffffe" fill-rule="nonzero" mask="url(#b)" transform="translate(16 1)"/></g><path d="m17.022 3.009c-.011-.813-.201-.817-.412-1.691.359-.038.376-.031.751-.212.235.77-.346 1.401-.339 1.903z" mask="url(#c)" stroke="#000" stroke-width=".2" transform="translate(326 33)"/><g mask="url(#d)" transform="translate(326 33)"><path d="m-5.039-4.622c2.052 0 10.628-1.297 11.926 0 .56.561.56 11.366 0 11.927-.562.561-11.365.561-11.926 0-1.3-1.298 0-9.875 0-11.927z" fill="#fffffe" fill-rule="nonzero" mask="url(#e)" transform="translate(17)"/></g><path d="m17.496 1.029c.778.459 1.122.664 0 0z" mask="url(#f)" stroke="#000" stroke-width=".2" transform="translate(326 33)"/><g mask="url(#g)" transform="translate(326 33)"><path d="m-5.509-5.165c2.044 0 10.788-1.3 12.059 0 .557.57.557 11.069 0 11.639-.544.557-11.516.557-12.059 0-1.275-1.307 0-9.606 0-11.639z" fill="#fffffe" fill-rule="nonzero" mask="url(#h)" transform="translate(20 1)"/></g><path d="m20.031 1.724c.258-.022.774-.206.957-.257-.148.723-.488.217-.957.257z" mask="url(#i)" stroke="#000" stroke-width=".2" transform="translate(326 33)"/><g mask="url(#j)" transform="translate(326 33)"><path d="m-4.391-4.968c2.044 0 10.393-1.283 11.706 0 .562.546.562 11.578 0 12.125-.573.56-11.132.56-11.706 0-1.307-1.277 0-10.069 0-12.125z" fill="#fffffe" fill-rule="nonzero" mask="url(#k)" transform="translate(8 1)"/></g><path d="m9.776 2.598c-.271-.463.161-.911-.578-1.026-.165.684.401.724.578 1.026z" mask="url(#l)" stroke="#000" stroke-width=".2" transform="translate(326 33)"/><g mask="url(#m)" transform="translate(326 33)"><path d="m-4.76-4.769c2.028 0 10.413-1.278 11.706 0 .556.548.556 11.35 0 11.898-.561.554-11.145.554-11.706 0-1.289-1.275 0-9.864 0-11.898z" fill="#fffffe" fill-rule="nonzero" mask="url(#n)" transform="translate(6 1)"/></g><path d="m7.204 1.836c-.248.783-.174.56-.006.029" mask="url(#o)" stroke="#000" stroke-width=".2" transform="translate(326 33)"/><g mask="url(#p)" transform="translate(326 33)"><path d="m-4.883-5.248c2.413 0 10.816-1.431 12.535 0 .483.403.483 11.427 0 11.829-.8.666-11.733.666-12.535 0-1.188-.991 0-10.006 0-11.829z" fill="#fffffe" fill-rule="nonzero" mask="url(#q)" transform="translate(5 2)"/></g><path d="m6.398 2.29c-.09.352-1.344.308.375.72.795-.583-.492-.271-.375-.72z" mask="url(#r)" stroke="#000" stroke-width=".2" transform="translate(326 33)"/><g mask="url(#s)" transform="translate(326 33)"><path d="m-5.401-5.333c2.409 0 10.631-1.416 12.367 0 .483.396.483 11.664 0 12.06-.815.665-11.554.665-12.367 0-1.201-.98 0-10.223 0-12.06z" fill="#fffffe" fill-rule="nonzero" mask="url(#t)" transform="translate(8 2)"/></g><path d="m8.138 2.205c.436.378.995.556 1.261.903-1.247.245-.705-.42-1.261-.903z" mask="url(#u)" stroke="#000" stroke-width=".2" transform="translate(326 33)"/><g mask="url(#v)" transform="translate(326 33)"><path d="m-4.977-5.795c2.792 0 21.246-.818 21.246.735v14.715c0 2.153 1.462 11.757 0 13.393-1.488 1.665-21.246-.332-21.246-.735z" fill="#fffffe" fill-rule="nonzero" mask="url(#w)" transform="translate(0 3)"/></g><path d="m8.537 4.168c.006.065 1.345-.144-.137.703.13.012.737.166.799.382.555-.462-.01-.202.885-.603-.968-1.081-.734-.867-1.702-.398-.905.104-.135-.572-1.139.247.007-.755.632-.09-.601-.211.337-.354.384-.256.618-.694-.138.056-1.225.129-1.416.087-.023.012.583.102.36.198-1.494-.309-1.241-.046-1.734-.854-1.933.118-3.055 1.165-3.91 2.331 4.142-1.403.878 2.349 1.832 4.801-.014-.074-.121-.978-.054-1.088.603 1.483 3.556 3.029 3.1 4.208-.544 1.414 1.979 6.506 3.242 7.229-.84-2.338 3.893-6.399.042-7.021-.926-2.541-3.832-.536-3.812-3.041-.481-.459-.354.81-.962.298.957-1.846.34-1.427 1.77-.774.808-1.611 2.096-2.567 3.147-2.868-.09-.099-.695-.183-.854-.23.191.091 1.243-.183 1.477-.26-.346.06-.482.231-.412.519.188-.066.252-.014.2.157.115-.114.23-.123.35-.025-.066-.175-.029-.238.112-.189-.279-1.542-1.043-2.507-2.247-.613-1.273-1.162-.22-1.588 1.046-2.291z" mask="url(#x)" stroke="#000" stroke-width=".2" transform="translate(326 33)"/><g mask="url(#y)" transform="translate(326 33)"><path d="m-5.191-5.917c2.515 0 12.588-1.57 14.229 0 .689.66.689 14.499 0 15.159-.721.689-13.508.689-14.229 0-1.623-1.553 0-12.619 0-15.159z" fill="#fffffe" fill-rule="nonzero" mask="url(#z)" transform="translate(10 2)"/></g><path d="m10.777 3.602c1.605-3.983 4.295.564.018 2.101-.342-.779-.263-1.384-.018-2.101z" mask="url(#A)" stroke="#000" stroke-width=".2" transform="translate(326 33)"/><g mask="url(#B)" transform="translate(326 33)"><path d="m-5.205-5.268c2.357 0 10.517-1.395 12.206 0 .474.392.474 11.262 0 11.654-.789.651-11.42.651-12.206 0-1.169-.966 0-9.865 0-11.654z" fill="#fffffe" fill-rule="nonzero" mask="url(#C)" transform="translate(5 10)"/></g><path d="m5.334 10.367c.44.145.78-.135 1.127.384-.51.053-.688-.24-1.127-.384z" mask="url(#D)" stroke="#000" stroke-width=".2" transform="translate(326 33)"/><g mask="url(#E)" transform="translate(326 33)"><path d="m-5.719-5.15h28.791c-.926 0 2.025 25.639.191 27.434-1.46 1.429-11.441 0-13.457 0h-15.334c-.384-.001-.191-24.651-.191-27.434z" fill="#fffffe" fill-rule="nonzero" mask="url(#F)" transform="translate(13 1)"/></g><path d="m15.889 8.532c-2.189.188-3.078 1.358-2.822 3.356-.096-.748 3.42 3.174 3.177 2.963 1.629 1.407-.648 3.848 2.641 1.506.779-.557 1.438-3.676 1.898-4.671-.611-.413-1.334-1.277-2.255-1.991.323.52 1.081 1.413 1.462 2.022.027-.028 1.544-1.288 1.654-1.336-.788-.448-.657-.133-1.49-.885 1.811.195 3.059 1.119 3.646 2.777.243-.7.725-1.189.988-1.971.049.049.2.361.391-.006.494.838 1.379 1.723 1.742 2.756-.249-.615-.308-.932-.542-1.587.063.041.722.621.688.661.167-.634-.209-1.39.003-1.771 1.164-.922 1.062-1.045.184-2.345.407.188.746-.113 1.342.489-.285-1.282-.237-2.002-.989-3.326 1.083-.094.66-.137.941-.528.17.182.276.173.321-.027.304.662.476.85.962 1.574.073-.406-.336-1.068-.519-1.362.415-.058.965.269 1.286-.078-.25-1.552-1.064 1.076.126-.392-2.001-.717-3.763-.957-5.82-.641.24-1.529-.663-1.693-.793-2.332-1.254 1.22-1.04.041-.906 1.744-1.583.487-1.275.379-2.135 1.447-.349-.29-.26-.648-.705-.767-.124.278-.024.485.294.623-.693.124-1.882.457-1.805.423-1.911-.618-3.542-.158-2.809 1.388.561-.526.628-.713 1.171-1.359.209.86-.682.403.486.774-1.044.277-.915.317-1.865.24-.475.427-.676.814-1.369 1.125-.181.359-.215.762-.562 1.521 1.479-.182 1.521-.17 2.747-.067-.023-.189.16-.282.269-.295-.076-.12-.627-.724-.609-.708.336.343.815.698 1.04 1.225.185-.071-.026-.387.248-.268-.021-.095-.078-.159-.172-.194-.156-.057.223.164-.149-.036-.018-.01.304-.146.304-.146.611.555.239.524 1.148.555-1.326 1.112-2.007.511-2.843-.08z" mask="url(#G)" stroke="#000" stroke-width=".2" transform="translate(326 33)"/><g mask="url(#H)" transform="translate(326 33)"><path d="m-5.107-4.676c1.808 0 10.89-1.183 11.854 0 .655.801.655 11.396 0 12.197-.391.478-11.466.478-11.854 0-1.399-1.709 0-9.825 0-12.197z" fill="#fffffe" fill-rule="nonzero" mask="url(#I)" transform="translate(14 5)"/></g><path d="m14.622 5.862c.047.213.382.584.579.911-.062.017-.088.051-.073.104-.227.078-.458.113-.697.107.17-.358.288-.678.191-1.122z" mask="url(#J)" stroke="#000" stroke-width=".2" transform="translate(326 33)"/><g mask="url(#K)" transform="translate(326 33)"><path d="m-4.736-4.624c1.989 0 10.748-1.274 11.953 0 .628.664.628 12.197 0 12.862-.513.539-11.442.539-11.953 0-1.423-1.506 0-10.573 0-12.862z" fill="#fffffe" fill-rule="nonzero" mask="url(#L)" transform="translate(19 14)"/></g><path d="m20.501 14.914c-.239.822-.943.913-.48 1.784.786-.7.306-1.192.48-1.784z" mask="url(#M)" stroke="#000" stroke-width=".2" transform="translate(326 33)"/><g mask="url(#N)" transform="translate(326 33)"><path d="m-5.272-4.627c2.084 0 10.808-1.318 12.125 0 .569.569.569 11.53 0 12.1-.568.569-11.557.569-12.125 0-1.319-1.318 0-10.016 0-12.1z" fill="#fffffe" fill-rule="nonzero" mask="url(#O)" transform="translate(28 5)"/></g><path d="m28.266 5.912c.352.339.616.789.965 1.024-.019-.065.008-.085.083-.058-.252-.404-.658-.588-1.048-.966z" mask="url(#P)" stroke="#000" stroke-width=".2" transform="translate(326 33)"/><g mask="url(#Q)" transform="translate(326 33)"><path d="m-4.365-4.542c2.008 0 10.42-1.27 11.687 0 .548.55.548 11.094 0 11.644-.546.547-11.14.547-11.687 0-1.27-1.272 0-9.637 0-11.644z" fill="#fffffe" fill-rule="nonzero" mask="url(#R)" transform="translate(28 6)"/></g><path d="m29.633 7.102c-.577.502-.294.256 0 0z" mask="url(#S)" stroke="#000" stroke-width=".2" transform="translate(326 33)"/><g mask="url(#T)" transform="translate(326 33)"><path d="m-5.218-4.624h15.394c-.142 0 1.415 14.09.309 15.122-1.827 1.703-12.663 0-15.392 0-.64 0-.311-13.368-.311-15.122z" fill="#fffffe" fill-rule="nonzero" mask="url(#U)" transform="translate(27 14)"/></g><path d="m30.615 14.93c-1.46.32-2.854 1.197-3.295 3.131 2.11.387 6.065.603 4.074-3.146.007-.013-.378.908-.503 1.007-.38-.242-.137-.875-.276-.992z" mask="url(#V)" stroke="#000" stroke-width=".2" transform="translate(326 33)"/><g mask="url(#W)" transform="translate(326 33)"><path d="m-5.624-4.937c2.149 0 11.055-1.356 12.424 0 .588.583.588 12.015 0 12.597-.596.588-11.831.588-12.424 0-1.366-1.351 0-10.442 0-12.597z" fill="#fffffe" fill-rule="nonzero" mask="url(#X)" transform="translate(26 12)"/></g><path d="m26.475 12.88c-.293-.75.052.696.675 1.241.1-.738-.424-.6-.675-1.241z" mask="url(#Y)" stroke="#000" stroke-width=".2" transform="translate(326 33)"/><g mask="url(#Z)" transform="translate(326 33)"><path d="m-5.066-5.158c2.144 0 10.952-1.349 12.324 0 .586.576.586 12.057 0 12.635-.599.586-11.729.586-12.324 0-1.366-1.344 0-10.484 0-12.635z" fill="#fffffe" fill-rule="nonzero" mask="url(#aa)" transform="translate(27 12)"/></g><path d="m28.379 12.38c-.173.892-1.479.875-.254 1.558.844-.836.153-1.036.254-1.558z" mask="url(#ab)" stroke="#000" stroke-width=".2" transform="translate(326 33)"/><g mask="url(#ac)" transform="translate(326 33)"><path d="m-4.602-5.014c1.833 0 11.109-1.199 12.081 0 .662.816.662 11.431 0 12.249-.392.482-11.688.482-12.081 0-1.407-1.734 0-9.854 0-12.249z" fill="#fffffe" fill-rule="nonzero" mask="url(#ad)" transform="translate(28 7)"/></g><path d="m29.509 7.525c-.021.504-.048.737-.574 1.097.33.037.352.008.565.073.779-.299-.024-.39.009-1.17z" mask="url(#ae)" stroke="#000" stroke-width=".2" transform="translate(326 33)"/><g mask="url(#af)" transform="translate(326 33)"><path d="m-4.996-4.775c2.035 0 10.462-1.284 11.759 0 .557.551.557 11.39 0 11.942-.563.558-11.196.558-11.759 0-1.294-1.28 0-9.9 0-11.942z" fill="#fffffe" fill-rule="nonzero" mask="url(#ag)" transform="translate(28 10)"/></g><path d="m28.66 10.763c.188.362.416.593.515.865-.726-.159-.31-.467-.515-.865z" mask="url(#ah)" stroke="#000" stroke-width=".2" transform="translate(326 33)"/><g mask="url(#ai)" transform="translate(326 33)"><path d="m-4.547-4.521c2.007 0 10.396-1.268 11.662 0 .548.548.548 11.087 0 11.635-.546.548-11.114.548-11.662 0-1.265-1.266 0-9.631 0-11.635z" fill="#fffffe" fill-rule="nonzero" mask="url(#aj)" transform="translate(28 11)"/></g><path d="m29.394 12.018c-.149.555-.165.625 0 0z" mask="url(#ak)" stroke="#000" stroke-width=".2" transform="translate(326 33)"/><g mask="url(#al)" transform="translate(326 33)"><path d="m-4.897-5.381c2.062 0 10.609-1.302 11.923 0 .564.559.564 11.535 0 12.093-.569.563-11.354.563-11.923 0-1.313-1.299 0-10.024 0-12.093z" fill="#fffffe" fill-rule="nonzero" mask="url(#am)" transform="translate(28 13)"/></g><path d="m29.352 13.158c-.303.393-.937.101-.574 1.017.063-.479.145-.53.236-.149-.026-.696.074-.527.338-.868z" mask="url(#an)" stroke="#000" stroke-width=".2" transform="translate(326 33)"/><g mask="url(#ao)" transform="translate(326 33)"><path d="m-5.402-5.17h12.882c.146 0 1.277 11.529.372 12.589-1.116 1.304-10.908 0-12.882 0-.778 0-.372-11.005-.372-12.589z" fill="#fffffe" fill-rule="nonzero" mask="url(#ap)" transform="translate(30 13)"/></g><path d="m30.137 13.551c.738.162 1.331.104 2.175 1.328-1.166-.052-1.139-.537-2.175-1.328z" mask="url(#aq)" stroke="#000" stroke-width=".2" transform="translate(326 33)"/><g mask="url(#ar)" transform="translate(326 33)"><path d="m-4.445-4.9c2.016 0 10.399-1.273 11.68 0 .551.548.551 11.22 0 11.767-.553.552-11.126.552-11.68 0-1.278-1.271 0-9.749 0-11.767z" fill="#fffffe" fill-rule="nonzero" mask="url(#as)" transform="translate(31 13)"/></g><path d="m32.272 14.095c-.238.103.978-.423 0 0z" mask="url(#at)" stroke="#000" stroke-width=".2" transform="translate(326 33)"/><g mask="url(#au)" transform="translate(326 33)"><path d="m-5.115-5.143c2.39 0 10.556-1.406 12.275 0 .481.394.481 11.56 0 11.953-.806.66-11.467.66-12.275.001-1.191-.973 0-10.131 0-11.954z" fill="#fffffe" fill-rule="nonzero" mask="url(#av)" transform="translate(31 19)"/></g><path d="m32.621 19.396c-.379.33-.922.596-1.197.873.873-.087.795-.52 1.197-.873z" mask="url(#aw)" stroke="#000" stroke-width=".2" transform="translate(326 33)"/><g mask="url(#ax)" transform="translate(326 33)"><path d="m-4.735-4.906c2.047 0 10.452-1.287 11.762 0 .562.551.562 11.527 0 12.077-.57.562-11.19.562-11.762 0-1.305-1.28 0-10.023 0-12.077z" fill="#fffffe" fill-rule="nonzero" mask="url(#ay)" transform="translate(32 18)"/></g><path d="m32.804 19.33c-.168.081.491.059.685-.264-.299-.949-.177.02-.685.264z" mask="url(#az)" stroke="#000" stroke-width=".2" transform="translate(326 33)"/><g fill-rule="nonzero"><g transform="translate(0 92)"><path d="m11.751 19.102c-2.206 0-4-1.795-4-4 0-.302.036-.601.105-.896l-1.349-.918c-.662.458-1.451.71-2.26.71-2.206 0-4-1.794-4-3.999s1.797-3.999 4.002-3.999c.809 0 1.598.252 2.26.71l1.349-.918c-.069-.295-.104-.594-.104-.896 0-2.205 1.794-4 4-4s4 1.795 4 4c0 2.207-1.794 4.002-4 4.002-.81 0-1.599-.254-2.261-.711l-1.349.916c.07.295.106.594.106.896 0 .301-.036.601-.106.896l1.35.918c.662-.459 1.452-.711 2.26-.711 2.205 0 3.999 1.795 3.999 4-.002 2.205-1.796 4-4.002 4z" fill="#fff" opacity=".5"/><path d="m11.752 12.102c-.867 0-1.645.375-2.192.967l-2.615-1.778c.188-.394.305-.826.305-1.29s-.115-.896-.305-1.29l2.615-1.776c.546.59 1.325.967 2.192.967 1.653 0 3-1.349 3-3.002 0-1.654-1.348-3-3-3-1.653 0-3 1.346-3 3 0 .463.114.896.303 1.289l-2.614 1.779c-.548-.594-1.326-.968-2.192-.968-1.654 0-3 1.345-3 2.999 0 1.653 1.347 2.999 3 2.999.867 0 1.644-.374 2.19-.966l2.614 1.778c-.188.394-.303.826-.303 1.291 0 1.653 1.346 2.998 3 2.998 1.653 0 3-1.345 3-2.998.001-1.654-1.344-2.999-2.998-2.999z" fill="#000"/></g><g transform="translate(33 93)"><path d="m7.194 5.639v-.75c0-.181.016-.272.008-.295.045-.015.149-.037.347-.037l2.451.004v-4.328l-.869-.115c-.339-.048-1.248-.118-2.245-.118-2.746 0-4.52 1.812-4.52 4.619v1.02h-2.366v4.738h2.365v7.623h4.827v-7.623h2.235l.613-4.738z" fill="#fff" opacity=".5"/><path d="m6.194 17v-7.623h2.356l.354-2.738h-2.711v-1.75c0-.791.221-1.332 1.355-1.332l1.452.002v-2.451c-.251-.034-1.111-.108-2.114-.108-2.09 0-3.52 1.277-3.52 3.619v2.02h-2.366v2.738h2.365v7.623z" fill="#000"/></g><g transform="translate(55 94)"><path d="m10.045 15.98c-1.988 0-3.916-.566-5.576-1.64l-3.66-2.362 4.324.53c.215.025.438.035.663.035.553 0 1.092-.078 1.604-.229-.714-.521-1.266-1.269-1.548-2.152l-.308-.967c-.562-.729-.891-1.635-.891-2.601v-1.717l.082.045c-.036-.229-.056-.463-.056-.698 0-.75.2-1.492.577-2.146l.725-1.26.917 1.125c1.253 1.539 3.006 2.572 4.924 2.93.193-2.184 2.033-3.9 4.265-3.9.973 0 1.92.338 2.676.943.47-.139.905-.322 1.299-.557l2.27-1.34-.681 2.108 2.14-.961-1.946 2.901c-.411.611-.899 1.156-1.458 1.627-.034 5.07-3.896 10.286-10.342 10.286z" fill="#fff" opacity=".5"/><path d="m21.011 3.514c-.591.267-1.223.438-1.889.521.683-.406 1.203-1.052 1.446-1.812-.636.375-1.338.637-2.088.793-.598-.638-1.453-1.041-2.396-1.041-1.812 0-3.282 1.473-3.282 3.284 0 .257.031.507.084.744-2.725-.129-5.146-1.438-6.766-3.426-.281.487-.443 1.051-.443 1.647 0 1.133.578 2.152 1.459 2.728-.537-.013-1.043-.156-1.484-.406v.052c0 1.584 1.133 2.905 2.636 3.219-.277.069-.569.104-.869.104-.209 0-.412-.012-.615-.062.418 1.312 1.631 2.262 3.067 2.281-1.124.887-2.538 1.405-4.077 1.405-.267 0-.529-.012-.784-.043 1.452.938 3.175 1.479 5.034 1.479 6.033 0 9.338-5.006 9.338-9.342 0-.138 0-.281-.012-.418.644-.469 1.202-1.051 1.641-1.707z" fill="#000"/></g><g transform="translate(148 93)"><path d="m19.238 0h-6.011l-3.822 6.716-2.151-3.786h-5.805l2.64 4.646-3.382 5.592h5.841l1.011-1.672 3.699 6.504h6.009l-4.117-7.271z" fill="#fff" opacity=".5"/><path d="m2.48 12.168h3.504l2.769-4.576-2.08-3.662h-3.504l2.081 3.662zm5.792-1.439 5.536-9.729h3.712l-5.52 9.729 3.552 6.271h-3.712z" fill="#000"/></g><g transform="translate(209 95)"><path d="m17.992 6.672c-.005-.331-.004-.646-.004-.943.005-2.672.009-4.981-4.146-5.244-1.167-.058-3.203-.09-5.444-.09-.917 0-3.979.006-4.904.104-1.376.145-2.232.443-2.818 1.605-.58 1.152-.681 2.336-.674 5.086.008 3.473.202 5.787 2.723 6.312.335.069 2.021.106 5.009.106l2.228-.008c6.277-.029 6.397-.029 7.238-1.316.761-1.156.833-2.158.792-5.612z" fill="#fff" opacity=".5"/><path d="m16.992 6.684c-.04-3.308.364-4.976-3.199-5.201-2.557-.123-8.985-.116-10.196.011-1.246.131-1.674.354-2.029 1.062-.458.911-.573 1.855-.566 4.635.009 3.935.399 5.017 1.93 5.334.3.063 3.09.099 6.454.082 6.626-.032 6.407-.006 6.979-.871.575-.879.668-1.625.627-5.052zm-9.258 2.91c-.021-1.244.01-3.773-.026-5.162.81.498 2.405 1.549 3.899 2.541-.884.664-2.687 1.888-3.873 2.621z" fill="#000"/></g><g transform="translate(238 94)"><path d="m18.055 1.006c-.596-.615-1.408-.902-2.442-.822l-.143-.002c-2.583 0-4.361 1.479-5.283 4.397l-.04.125c-.022-.136-.047-.274-.071-.417l-.098-.562c-.457-3.088-2.275-3.42-3.037-3.42-.097 0-.195.004-.297.014-.786.022-1.621.494-2.933 1.643-.415.346-.812.709-1.21 1.071-.375.343-.75.686-1.143 1.012l-.747.622 1.899 2.418 1.003-.641c.155-.098.312-.198.447-.282.145.233.377.715.631 1.66.203.776.423 1.571.643 2.366.218.785.436 1.569.662 2.424.957 2.658 2.318 3.216 3.293 3.216 1.846 0 3.968-1.558 6.303-4.622 2.28-2.943 3.426-5.219 3.502-6.965.049-1.473-.258-2.533-.939-3.235zm-6.468 4.767c.224-.11.466-.162.763-.162.031 0 .058 0 .078.003.007.047.013.118.006.217-.024.196-.165.788-.916 1.989-.225.337-.398.576-.532.748-.101-.272-.227-.696-.361-1.344-.047-.162-.109-.464-.187-.877z" fill="#fff" opacity=".5"/><path d="m17.996 4.208c-.067 1.546-1.21 3.696-3.293 6.385-2.151 2.823-4.033 4.234-5.512 4.234-.94 0-1.748-.874-2.352-2.554-.403-1.547-.874-3.159-1.277-4.705-.47-1.748-1.008-2.555-1.545-2.555-.135 0-.538.27-1.276.739l-.741-.94c.807-.672 1.546-1.412 2.353-2.084 1.075-.94 1.814-1.41 2.353-1.41 1.21-.135 2.017.738 2.285 2.554.336 1.948.537 3.157.672 3.629.336 1.613.738 2.42 1.209 2.42.336 0 .807-.538 1.479-1.546.672-1.075 1.008-1.882 1.076-2.42.067-.873-.269-1.344-1.076-1.344-.403 0-.806.066-1.209.269.808-2.554 2.285-3.764 4.503-3.696 1.679-.135 2.418.94 2.351 3.024z" fill="#000"/></g><g transform="translate(272 93)"><path d="m10.415 12.391-1.019.487c-.137.065-.56.171-.927.181-.001 0-.003 0-.005 0-.276 0-.458-.004-.467-.578v-3.98h3.213v-4.423h-3.202v-4.078h-3.343c-.57 0-1.047.436-1.109 1.011-.135 1.228-.677 2.825-2.493 3.48l-.661.237v3.771h1.62v4.228c0 2.558 1.992 5.273 5.686 5.273l.138-.001c1.317-.022 3.017-.543 3.582-1.377l.278-.41z" fill="#fff" opacity=".5"/><path d="m9.829 13.78c-.299.143-.867.266-1.291.276-1.281.033-1.529-.899-1.54-1.578v-4.979h3.213v-2.423h-3.202v-4.076s-2.306 0-2.343 0c-.039 0-.106.034-.115.12-.137 1.247-.721 3.437-3.148 4.312v2.067h1.62v5.228c0 1.791 1.32 4.334 4.807 4.272 1.176-.021 2.481-.513 2.771-.938z" fill="#000"/></g><g transform="translate(119 93)"><path d="m13.052 5.085c-.856 0-1.543.187-2.091.454v-.211h-5.329-.149-.714c.672-.503 1.089-1.29 1.089-2.214-.035-1.601-1.262-2.763-2.917-2.763-1.704 0-2.939 1.172-2.939 2.784 0 .909.41 1.69 1.069 2.191h-.867v12.319h5.323.106 5.329v-6.763c0-.342.034-.446.04-.464.115-.287.354-.629.833-.629.258 0 .737 0 .737 1.333v6.521h5.428v-6.916c0-4.159-2.556-5.642-4.948-5.642z" fill="#fff" opacity=".5"/><g fill="#000" transform="translate(1 1)"><path d="m3.632 15.646v-10.318h-3.43v10.318zm-1.714-11.728c1.194 0 1.94-.793 1.94-1.781-.021-1.014-.743-1.783-1.918-1.783-1.173 0-1.939.771-1.939 1.783 0 .988.744 1.781 1.896 1.781z"/><path d="m5.531 15.646h3.431v-5.762c0-.31.021-.617.111-.837.249-.618.812-1.256 1.761-1.256 1.242 0 1.737.946 1.737 2.333v5.521h3.429v-5.916c0-3.172-1.691-4.646-3.948-4.646-1.851 0-2.663 1.036-3.115 1.74h.023v-1.497h-3.431c.047.97.002 10.32.002 10.32z"/></g></g><g transform="translate(90 93)"><path d="m13.253 1.848c-1.276-1.227-2.914-1.848-4.869-1.848-1.178 0-2.267.203-3.234.604-.99.406-1.809.951-2.431 1.617-.606.647-1.079 1.364-1.405 2.131-.334.782-.504 1.588-.504 2.393 0 .984.194 1.87.577 2.63.425.843 1.075 1.446 1.935 1.797.213.085.433.119.646.103-.233.987-.383 1.621-.448 1.9-.062.274-.107.571-.141.896-.029.307-.047.582-.052.838-.004.259 0 .523.02.792.017.265.033.479.051.646l.088.771c.098.442.434.774.877.862l.227.02c.354 0 .683-.164.897-.452l.062-.085c.076-.092.158-.193.244-.312.082-.109.178-.248.281-.398.114-.165.227-.344.342-.537.108-.183.218-.38.336-.6.112-.221.219-.445.312-.678.104-.248.184-.492.253-.75l.251-.992c.521.246 1.078.371 1.659.371 1.777 0 3.246-.729 4.367-2.17 1.056-1.365 1.5920285-3.094 1.5920285-5.135.0049715-1.692-.6470285-3.177-1.9330285-4.414z" fill="#fff" opacity=".5"/><path d="m1.81 6.743c0-.673.143-1.339.424-1.999.282-.662.688-1.275 1.217-1.84.526-.565 1.221-1.023 2.079-1.377.857-.354 1.812-.527 2.854-.527 1.695 0 3.088.523 4.176 1.568 1.086 1.045 1.631 2.274 1.631 3.692 0 1.823-.461 3.33-1.383 4.521-.924 1.188-2.115 1.782-3.576 1.782-.479 0-.93-.111-1.352-.336-.422-.227-.718-.496-.889-.815l-.641 2.526c-.055.201-.122.406-.208.615-.085.207-.18.407-.279.603-.102.188-.202.372-.305.543s-.202.331-.305.479c-.102.148-.188.274-.264.376-.075.104-.145.188-.208.266l-.097.129c-.032.043-.075.059-.129.048s-.085-.042-.097-.097c0-.012-.008-.084-.022-.226-.018-.139-.032-.284-.049-.438-.017-.153-.031-.354-.047-.602-.018-.244-.021-.48-.018-.712.005-.229.021-.479.048-.76.026-.277.065-.533.12-.771.116-.502.512-2.17 1.185-5.008-.085-.17-.154-.375-.208-.613-.054-.239-.08-.438-.08-.584l-.017-.239c0-.685.174-1.25.521-1.703.348-.453.767-.681 1.256-.681.396 0 .701.131.92.392.22.262.328.59.328.983 0 .244-.045.547-.137.902-.091.357-.21.77-.359 1.231-.148.461-.256.84-.319 1.128-.105.479-.014.896.279 1.248.294.352.686.525 1.177.525.843 0 1.538-.478 2.088-1.433.549-.955.822-2.108.822-3.463 0-1.035-.337-1.88-1.009-2.536-.672-.654-1.607-.982-2.812-.982-1.344 0-2.436.434-3.271 1.297-.838.861-1.256 1.896-1.256 3.104 0 .715.202 1.316.606 1.809.14.16.183.33.128.515-.021.053-.055.176-.097.366-.043.19-.074.312-.097.367-.021.117-.074.193-.159.23-.085.038-.182.035-.288-.008-.629-.256-1.102-.695-1.416-1.319-.312-.622-.465-1.344-.465-2.176z" fill="#000"/></g><path d="m194.759 99.499v-2.021h-3.486v2.021h-.945c.202-.478.339-1.029.339-1.701 0-.679-.14-1.313-.415-1.896l4.613-2.902h-8.289c-.842 0-2.976.146-4.627 1.51-1.08.932-1.725 2.297-1.725 3.654 0 1.859 1.213 3.82 3.485 4.306-.778.154-1.606.412-2.333.857-2.007 1.192-2.163 3.01-2.163 3.539 0 1.991 1.748 4.134 5.585 4.134 4.303 0 6.554-2.547 6.554-5.062.001-1.354-.555-2.246-1.22-2.941h1.139v2.037h3.486v-2.037h2.028v-3.497z" fill="#fff" opacity=".5"/><g fill="#000" transform="translate(180 94)"><path d="m8.564 8.909-.731-.57c-.21-.171-.428-.35-.428-.672 0-.332.227-.556.475-.804.796-.627 1.787-1.408 1.787-3.065 0-1.203-.562-1.999-1.044-2.487h.691l2.083-1.311h-4.819c-.733 0-2.589.123-3.975 1.268-.861.743-1.377 1.826-1.377 2.896 0 1.658 1.26 3.419 3.595 3.419.091 0 .185-.004.28-.01-.045.145-.077.31-.077.516 0 .49.17.847.388 1.166-.968.074-2.409.25-3.521.933-1.553.922-1.674 2.283-1.674 2.68 0 1.56 1.418 3.134 4.585 3.134 3.646 0 5.554-2.045 5.554-4.063-.002-1.522-.908-2.287-1.792-3.03zm-4.686-7.084c.275-.347.769-.578 1.225-.578 1.532 0 2.3 2.231 2.3 3.481 0 .375-.045.916-.431 1.308-.299.295-.783.494-1.204.494-1.611 0-2.281-2.188-2.281-3.36.001-.582.128-1.022.391-1.345zm.172 8.763c.888-.3 2.032-.312 2.043-.312h.033c.142 0 .229 0 .34.013 1.487 1.06 2.051 1.552 2.051 2.438-.001 1.197-1.046 1.942-2.728 1.942-1.98 0-3.312-.896-3.312-2.228.001-1.291 1.187-1.714 1.573-1.853z"/><path d="m13.759 6.499v-2.02h-1.487v2.02h-2.019v1.496h2.019v2.037h1.487v-2.037h2.027v-1.496z"/></g><g transform="translate(299 93)"><path d="m15.685.061c.021.004.043.008.048.008.004 0 0-.002-.015-.006l-.146-.047h-12.879l-.191.018-.265.068c-1.12.303-1.87 1.094-2.12 2.236l-.046.146v12.879l.021.209.075.299c.324 1.242 1.442 2.111 2.719 2.111l6.768.002 5.565-.002c1.553-.002 2.816-1.266 2.817-2.818.003-4.105.0018934-8.211 0-12.318-.001-1.371-.985-2.541-2.351-2.785z" fill="#fff" opacity=".5"/><path d="m1.071 15.363c0-4.242 0-8.482 0-12.725.011-.035.024-.068.031-.104.166-.775.634-1.262 1.396-1.469.064-.018.13-.033.194-.051h12.726c.034.012.067.025.103.031.873.156 1.516.912 1.516 1.801.0018934 4.105.003 8.211 0 12.314-.001.998-.822 1.818-1.818 1.82-4.11.002-8.221.002-12.331 0-.817 0-1.546-.574-1.752-1.363-.022-.084-.044-.168-.065-.254zm12.745-7.584c.349 1.551.093 2.967-.873 4.215-.969 1.252-2.268 1.895-3.851 1.914-1.376.016-2.569-.473-3.527-1.461-1.271-1.309-1.658-2.881-1.275-4.662-.462 0-.914 0-1.373 0-.002.049-.005.084-.005.119-.001 2.199-.001 4.398 0 6.596 0 .389.266.645.666.645 3.648.002 7.297.002 10.945 0 .424 0 .677-.254.677-.68.001-2.172 0-4.346 0-6.518 0-.055 0-.109 0-.168-.47 0-.916 0-1.384 0zm-1.6889653 1.213c-.0080347-1.701-1.3910347-3.074-3.0830347-3.062-1.699.012-3.062 1.379-3.06100055 3.07 0 1.699 1.37900055 3.076 3.07500055 3.0720087 1.701-.0040087 3.077-1.3840087 3.0690347-3.0800087zm1.5489653-6.137c-.291 0-.582 0-.872 0-.011 0-.021 0-.031 0-.381.006-.642.25-.646.633-.009.602-.009 1.205-.001 1.807.005.381.248.629.626.635.608.01 1.216.01 1.824 0 .381-.006.623-.27.624-.652.001-.588.001-1.174 0-1.762-.001-.396-.257-.656-.65-.66-.292-.002-.583-.001-.874-.001z" fill="#000"/></g></g><g transform="translate(416 32)"><path d="m0 0h24v24h-24z"/><path d="m15.5 14h-.79l-.28-.27c.98-1.14 1.57-2.62 1.57-4.23 0-3.59-2.91-6.5-6.5-6.5s-6.5 2.91-6.5 6.5 2.91 6.5 6.5 6.5c1.61 0 3.09-.59 4.23-1.57l.27.28v.79l5 4.99 1.49-1.49zm-6 0c-2.49 0-4.5-2.01-4.5-4.5s2.01-4.5 4.5-4.5 4.5 2.01 4.5 4.5-2.01 4.5-4.5 4.5z" fill="#000" fill-rule="nonzero"/></g><g transform="translate(446 32)"><path d="m0 0h24v24h-24z"/><path d="m19 3h-4.18c-.42-1.16-1.52-2-2.82-2s-2.4.84-2.82 2h-4.18c-1.1 0-2 .9-2 2v14c0 1.1.9 2 2 2h14c1.1 0 2-.9 2-2v-14c0-1.1-.9-2-2-2zm-7 0c.55 0 1 .45 1 1s-.45 1-1 1-1-.45-1-1 .45-1 1-1zm2 14h-7v-2h7zm3-4h-10v-2h10zm0-4h-10v-2h10z" fill="#000" fill-rule="nonzero"/></g><g transform="translate(476 32)"><path d="m0 0h24v24h-24z"/><path d="m22.7 19-9.1-9.1c.9-2.3.4-5-1.5-6.9-2-2-5-2.4-7.4-1.3l4.3 4.3-3 3-4.4-4.3c-1.2 2.4-.7 5.4 1.3 7.4 1.9 1.9 4.6 2.4 6.9 1.5l9.1 9.1c.4.4 1 .4 1.4 0l2.3-2.3c.5-.4.5-1.1.1-1.4z" fill="#000" fill-rule="nonzero"/></g><g transform="translate(476 2)"><path d="m0 0h24v24h-24z"/><path d="m22.7 19-9.1-9.1c.9-2.3.4-5-1.5-6.9-2-2-5-2.4-7.4-1.3l4.3 4.3-3 3-4.4-4.3c-1.2 2.4-.7 5.4 1.3 7.4 1.9 1.9 4.6 2.4 6.9 1.5l9.1 9.1c.4.4 1 .4 1.4 0l2.3-2.3c.5-.4.5-1.1.1-1.4z" fill="#fff" fill-rule="nonzero"/></g><g transform="translate(446 2)"><path d="m0 0h24v24h-24z"/><path d="m19 3h-4.18c-.42-1.16-1.52-2-2.82-2s-2.4.84-2.82 2h-4.18c-1.1 0-2 .9-2 2v14c0 1.1.9 2 2 2h14c1.1 0 2-.9 2-2v-14c0-1.1-.9-2-2-2zm-7 0c.55 0 1 .45 1 1s-.45 1-1 1-1-.45-1-1 .45-1 1-1zm2 14h-7v-2h7zm3-4h-10v-2h10zm0-4h-10v-2h10z" fill="#fff" fill-rule="nonzero"/></g><g transform="translate(416 2)"><path d="m0 0h24v24h-24z"/><path d="m15.5 14h-.79l-.28-.27c.98-1.14 1.57-2.62 1.57-4.23 0-3.59-2.91-6.5-6.5-6.5s-6.5 2.91-6.5 6.5 2.91 6.5 6.5 6.5c1.61 0 3.09-.59 4.23-1.57l.27.28v.79l5 4.99 1.49-1.49zm-6 0c-2.49 0-4.5-2.01-4.5-4.5s2.01-4.5 4.5-4.5 4.5 2.01 4.5 4.5-2.01 4.5-4.5 4.5z" fill="#fff" fill-rule="nonzero"/></g><g transform="translate(386 32)"><path d="m0 0h24v24h-24z"/><path d="m20.01 15.38c-1.23 0-2.42-.2-3.53-.56-.35-.12-.74-.03-1.01.24l-1.57 1.97c-2.83-1.35-5.48-3.9-6.89-6.83l1.95-1.66c.27-.28.35-.67.24-1.02-.37-1.11-.56-2.3-.56-3.53 0-.54-.45-.99-.99-.99h-3.46c-.54 0-1.19.24-1.19.99 0 9.29 7.73 17.01 17.01 17.01.71 0 .99-.63.99-1.18v-3.45c0-.54-.45-.99-.99-.99z" fill="#000" fill-rule="nonzero"/></g><g transform="translate(386 2)"><path d="m0 0h24v24h-24z"/><path d="m20.01 15.38c-1.23 0-2.42-.2-3.53-.56-.35-.12-.74-.03-1.01.24l-1.57 1.97c-2.83-1.35-5.48-3.9-6.89-6.83l1.95-1.66c.27-.28.35-.67.24-1.02-.37-1.11-.56-2.3-.56-3.53 0-.54-.45-.99-.99-.99h-3.46c-.54 0-1.19.24-1.19.99 0 9.29 7.73 17.01 17.01 17.01.71 0 .99-.63.99-1.18v-3.45c0-.54-.45-.99-.99-.99z" fill="#fff" fill-rule="nonzero"/></g><g transform="translate(506 32)"><path d="m0 0h24v24h-24z"/><path d="m3 18h18v-2h-18zm0-5h18v-2h-18zm0-7v2h18v-2z" fill="#000" fill-rule="nonzero"/></g><g transform="translate(506 2)"><path d="m0 0h24v24h-24z"/><path d="m3 18h18v-2h-18zm0-5h18v-2h-18zm0-7v2h18v-2z" fill="#fff" fill-rule="nonzero"/></g></g></svg>