<svg width="474" height="162" viewBox="0 0 474 162" fill="none" xmlns="http://www.w3.org/2000/svg">
<path d="M473.446 158.92H370.361V138H473.446V158.92Z" fill="black"/>
<path d="M354.496 158.923H338.388C325.073 158.923 317.557 151.621 316.268 139.809H315.194C311.114 153.554 298.873 161.5 281.692 161.5C259.571 161.5 245.182 149.044 245.182 128.212C245.182 105.877 261.719 94.7094 294.363 94.7094H313.906V87.4075C313.906 73.448 307.248 66.1462 292 66.1462C278.041 66.1462 270.095 72.1595 264.081 80.7499L248.404 67.4348C255.276 55.1934 270.739 45.5292 294.792 45.5292C323.785 45.5292 341.395 59.4886 341.395 86.1189V138H354.496V158.923ZM290.926 142.601C304.027 142.601 313.906 135.943 313.906 125.42V110.602H295.007C279.974 110.602 272.457 115.541 272.457 124.776V129.071C272.457 137.876 279.544 142.601 290.926 142.601Z" fill="black"/>
<path d="M195.932 158.923V140.38H194.428C187.415 153.695 178.321 161.5 161.355 161.5C136.013 161.5 119.047 142.601 119.047 103.515C119.047 64.4282 136.013 45.5293 161.355 45.5293C178.321 45.5293 187.415 51.3344 194.428 64.6496H195.932V0H223.421V158.923H195.932ZM172.952 139.594C185.408 139.594 195.932 133.581 195.932 120.91V86.119C195.932 73.4481 185.408 67.4348 172.952 67.4348C157.06 67.4348 147.825 77.9581 147.825 94.7094V112.32C147.825 129.071 157.06 139.594 172.952 139.594Z" fill="black"/>
<path d="M54.3344 161.5C20.4023 161.5 0 139.165 0 103.514C0 67.8642 20.617 45.5291 54.1197 45.5291C77.5286 45.5291 91.488 56.2671 98.7899 72.1594L77.5286 83.7565C73.6629 74.307 66.5758 67.8642 54.1197 67.8642C38.0126 67.8642 28.7779 78.1727 28.7779 94.2798V112.749C28.7779 128.641 37.7979 139.165 54.5492 139.165C67.6496 139.165 74.9515 132.507 79.891 122.628L100.508 134.87C92.9914 150.547 78.1729 161.5 54.3344 161.5Z" fill="black"/>
</svg>
