<svg width="474" height="159" viewBox="0 0 474 159" fill="none" xmlns="http://www.w3.org/2000/svg">
<path d="M473.446 158.92H370.361V138H473.446V158.92Z" fill="#fc0"/>
<path fill-rule="evenodd" clip-rule="evenodd" d="M125.27 138C121.256 129.093 119.047 117.618 119.047 103.515C119.047 64.4282 136.013 45.5293 161.355 45.5293C178.321 45.5293 187.415 51.3344 194.428 64.6496H195.932V0H223.421V138H183.274C190.712 135.455 195.932 129.834 195.932 120.91V86.119C195.932 73.4481 185.408 67.4348 172.952 67.4348C157.06 67.4348 147.825 77.9581 147.825 94.7094V112.32C147.825 125.247 153.325 134.465 163.139 138H125.27ZM45.6325 138H8.52565C2.96906 128.776 0 117.114 0 103.514C0 67.8642 20.617 45.5291 54.1197 45.5291C77.5286 45.5291 91.488 56.2671 98.7899 72.1594L77.5286 83.7564C73.6629 74.307 66.5758 67.8642 54.1197 67.8642C38.0126 67.8642 28.7779 78.1727 28.7779 94.2797V112.749C28.7779 125.539 34.62 134.852 45.6325 138ZM341.395 138L307.269 138C311.412 135.019 313.906 130.707 313.906 125.42V110.602H295.007C279.974 110.602 272.457 115.541 272.457 124.776V129.071C272.457 132.792 273.723 135.785 276.044 138H246.374C245.59 134.988 245.182 131.718 245.182 128.212C245.182 105.877 261.719 94.7094 294.363 94.7094H313.906V87.4075C313.906 73.4481 307.248 66.1462 292 66.1462C278.041 66.1462 270.095 72.1595 264.081 80.7499L248.404 67.4348C255.276 55.1934 270.739 45.5292 294.792 45.5292C323.785 45.5292 341.395 59.4886 341.395 86.1189V138Z" fill="#fc0"/>
</svg>
